<?xml version="1.0" standalone="no"?>
<!DOCTYPE svg PUBLIC "-//W3C//DTD SVG 1.1//EN" "http://www.w3.org/Graphics/SVG/1.1/DTD/svg11.dtd" >
<svg xmlns="http://www.w3.org/2000/svg" xmlns:xlink="http://www.w3.org/1999/xlink" version="1.1">
<metadata>
Created by FontForge 20170731 at Mon Jan  2 10:21:17 2023
 By Aleksey,,,
Copyright (c) Datto, Inc. All rights reserved.
</metadata>
<defs>
<font id="D-DIN-Italic" horiz-adv-x="1048" >
  <font-face 
    font-family="D-DIN"
    font-weight="400"
    font-style="italic"
    font-stretch="normal"
    units-per-em="2048"
    panose-1="2 11 5 4 3 2 2 10 2 4"
    ascent="1702"
    descent="-346"
    x-height="1038"
    cap-height="1413"
    bbox="-367 -344 2458 1823"
    underline-thickness="102"
    underline-position="-307"
    slope="-12"
    unicode-range="U+000D-FB02"
  />
<missing-glyph horiz-adv-x="1228" 
d="M248 1413h813v-1413h-813v1413zM991 70v1273h-674v-1273h674z" />
    <glyph glyph-name="fi" unicode="fi" horiz-adv-x="1118" 
d="M512 1161l-27 -123h217l-22 -110h-217l-199 -928h-139l197 928h-134l25 110h131l25 117q24 120 106 188q84 70 199 70h108l-24 -110h-86q-131 0 -160 -142zM936 1038h139l-221 -1038h-137zM1008 1393h147l-39 -185h-147z" />
    <glyph glyph-name="fl" unicode="fl" horiz-adv-x="1230" 
d="M512 1161l-27 -123h217l-22 -110h-217l-199 -928h-139l197 928h-134l25 110h131l25 117q24 120 106 188q84 70 199 70h108l-24 -110h-86q-131 0 -160 -142zM815 47q-53 47 -53 137q0 35 10 88l244 1141h139l-240 -1132q-8 -35 -8 -64q0 -48 26 -69t79 -21h84l-27 -127
h-98q-103 0 -156 47z" />
    <glyph glyph-name=".notdef" horiz-adv-x="1228" 
d="M248 1413h813v-1413h-813v1413zM991 70v1273h-674v-1273h674z" />
    <glyph glyph-name=".null" horiz-adv-x="0" 
 />
    <glyph glyph-name="nonmarkingreturn" unicode="&#xd;" horiz-adv-x="1228" 
 />
    <glyph glyph-name="space" unicode=" " horiz-adv-x="444" 
 />
    <glyph glyph-name="exclam" unicode="!" horiz-adv-x="489" 
d="M350 1413h172l-246 -1012h-112zM84 190h182l-41 -190h-182z" />
    <glyph glyph-name="quotedbl" unicode="&#x22;" horiz-adv-x="630" 
d="M297 1413h135l-100 -471h-135zM575 1413h136l-99 -471h-137z" />
    <glyph glyph-name="numbersign" unicode="#" 
d="M881 881l-109 -314h184l-24 -114h-199l-155 -453h-123l155 453h-280l-156 -453h-123l156 453h-170l24 114h185l108 314h-176l23 112h192l144 420h122l-143 -420h281l145 420h121l-143 -420h178l-25 -112h-192zM758 881h-281l-108 -314h282z" />
    <glyph glyph-name="dollar" unicode="$" horiz-adv-x="935" 
d="M784 997q4 36 4 60q0 134 -114 164l-94 -449l22 -4q229 -45 229 -248q0 -57 -10 -98q-39 -162 -139 -256t-254 -109l-39 -178h-119l39 180q-128 15 -196 86q-70 73 -70 197q0 41 6 86h141q-4 -36 -4 -55q0 -157 150 -187l100 471l-24 5q-112 24 -171 81t-59 158
q0 48 11 94q38 161 139 253q103 94 252 104l34 166h119l-37 -170q106 -18 168 -87q62 -70 62 -190q0 -50 -4 -74h-142zM465 797l90 426q-85 -12 -143 -70t-74 -147q-8 -48 -8 -62q0 -117 135 -147zM651 579q-32 35 -102 52l-94 -445q92 15 143 71q55 60 78 155q8 37 8 69
q0 62 -33 98zM373 1411z" />
    <glyph glyph-name="percent" unicode="%" horiz-adv-x="1822" 
d="M170 733q0 61 14 117l62 285q30 145 105 219q74 73 198 73q205 0 205 -182q0 -43 -13 -110l-59 -285q-30 -150 -104 -227q-73 -76 -203 -76q-205 0 -205 186zM1421 1413h127l-1065 -1413h-129zM492 709q30 44 51 147l55 266q14 67 14 101q0 43 -20 63q-21 21 -66 21
q-62 0 -92 -42t-51 -143l-57 -266q-15 -72 -15 -104q0 -45 21 -66q20 -20 65 -20q65 0 95 43zM1145 174q0 61 14 117l62 284q30 147 105 220q74 73 198 73q205 0 205 -182q0 -44 -13 -111l-59 -284q-30 -150 -105 -228q-72 -75 -202 -75q-205 0 -205 186zM1466 150
q32 46 52 147l55 266q14 67 14 101q0 43 -20 63q-21 21 -66 21q-62 0 -92 -42t-51 -143l-58 -266q-14 -67 -14 -104q0 -45 21 -66t65 -21q64 0 94 44z" />
    <glyph glyph-name="ampersand" unicode="&#x26;" horiz-adv-x="1228" 
d="M934 147q20 -14 45 -14h47l-29 -133h-69q-54 0 -82 19q-27 18 -55 73l-39 80q-102 -102 -197 -147t-197 -45q-133 0 -206 77q-74 79 -74 209q0 137 85 255q86 119 290 265q-52 106 -79 183q-24 67 -24 125q0 96 45 174q45 79 123 122q79 44 172 44q121 0 194 -65
q72 -65 72 -175q0 -116 -73 -208q-72 -91 -260 -226l176 -365l196 203l80 -84l-221 -233l45 -93q15 -27 35 -41zM546 1255q-52 -55 -52 -141q0 -43 16 -94q20 -65 59 -150q100 72 152 119q51 46 74 91q22 43 22 102q0 57 -38 93t-101 36q-79 0 -132 -56zM530 151
q68 41 166 136l-190 389q-153 -112 -220 -202q-65 -88 -65 -189q0 -81 45 -127q45 -47 125 -47q72 0 139 40z" />
    <glyph glyph-name="quotesingle" unicode="'" horiz-adv-x="350" 
d="M297 1413h135l-100 -471h-135z" />
    <glyph glyph-name="parenleft" unicode="(" horiz-adv-x="591" 
d="M119 346q0 156 35 326q92 443 421 844h107q-143 -198 -244 -416q-97 -210 -143 -428q-39 -180 -39 -375q0 -247 68 -469h-107q-98 249 -98 518z" />
    <glyph glyph-name="parenright" unicode=")" horiz-adv-x="591" 
d="M219 244q99 214 143 428q39 191 39 368q0 248 -69 476h106q101 -247 101 -521q0 -151 -35 -323q-90 -440 -424 -844h-107q145 197 246 416z" />
    <glyph glyph-name="asterisk" unicode="*" horiz-adv-x="774" 
d="M455 1061l-197 -100l-29 73l203 105l-158 102l58 74l155 -103l43 201h95l-43 -199l196 101l27 -74l-201 -102l158 -105l-57 -73l-156 100l-45 -211h-94z" />
    <glyph glyph-name="plus" unicode="+" 
d="M467 498h-340v135h340v340h135v-340h340v-135h-340v-340h-135v340z" />
    <glyph glyph-name="comma" unicode="," horiz-adv-x="356" 
d="M41 190h135l-72 -344l-167 -127z" />
    <glyph glyph-name="hyphen" unicode="-" horiz-adv-x="806" 
d="M176 778h563l-26 -135h-563z" />
    <glyph glyph-name="period" unicode="." horiz-adv-x="489" 
d="M84 188h182l-41 -188h-180z" />
    <glyph glyph-name="slash" unicode="/" horiz-adv-x="802" 
d="M750 1413h122l-743 -1433h-123z" />
    <glyph glyph-name="zero" unicode="0" horiz-adv-x="1007" 
d="M178 55q-80 77 -80 224q0 63 19 153l119 557q50 228 156 335q108 110 290 110q150 0 230 -74q79 -73 79 -219q0 -68 -18 -152l-119 -557q-50 -231 -157 -341q-108 -111 -289 -111q-152 0 -230 75zM607 194q64 81 104 267l104 491q21 94 21 164q0 96 -42 139t-132 43
q-119 0 -182 -78q-65 -80 -105 -268l-105 -491q-20 -86 -20 -160q0 -99 43 -142q44 -44 133 -44q118 0 181 79z" />
    <glyph glyph-name="one" unicode="1" horiz-adv-x="673" 
d="M500 1241l-283 -182l35 168l283 186h149l-301 -1413h-147z" />
    <glyph glyph-name="two" unicode="2" horiz-adv-x="960" 
d="M37 121l620 680q126 137 144 246q12 72 12 92q0 75 -46 118t-126 43q-97 0 -161 -58t-91 -171l-8 -37h-150l9 45q29 162 142 258q115 97 277 97q142 0 225 -77t83 -198q0 -33 -15 -110q-17 -89 -62 -161q-49 -78 -128 -165l-535 -590h531l-29 -133h-717z" />
    <glyph glyph-name="three" unicode="3" horiz-adv-x="1013" 
d="M163 50q-83 71 -83 202q0 57 10 98h150q-9 -59 -9 -69q0 -83 49 -126q48 -42 140 -42q108 0 180 65q74 66 96 178q19 95 19 127q0 86 -48 134q-49 49 -143 49h-80l31 135h72q102 0 177 63t93 168q14 74 14 101q0 77 -48 122t-130 45q-204 0 -254 -243h-143
q77 377 422 377q141 0 225 -72t84 -197q0 -45 -20 -131q-24 -102 -89 -176t-155 -113q71 -27 107 -88q36 -62 36 -145q0 -51 -20 -147q-38 -179 -157 -282t-290 -103q-154 0 -236 70z" />
    <glyph glyph-name="four" unicode="4" horiz-adv-x="1021" 
d="M877 276h-154l-59 -276h-150l59 276h-530l31 136l635 1001h161l-637 -1001h369l82 385h150l-82 -385h153z" />
    <glyph glyph-name="five" unicode="5" horiz-adv-x="989" 
d="M164 44q-80 65 -80 187q0 47 12 103h140q-5 -42 -5 -53q0 -166 179 -166q215 0 266 266l26 133q11 49 11 98q0 170 -172 170q-76 0 -137 -38q-60 -38 -93 -105h-131l164 774h676l-29 -137h-538l-97 -451q35 41 96 67t130 26q141 0 214 -71q72 -71 72 -202q0 -66 -14 -125
l-33 -155q-39 -188 -149 -286q-111 -99 -281 -99q-148 0 -227 64z" />
    <glyph glyph-name="six" unicode="6" horiz-adv-x="1011" 
d="M168 57q-86 78 -86 217q0 37 4 68q6 46 20 107q30 140 142 299l471 665h162l-437 -620q27 18 69 30q45 13 89 13q130 0 207 -76q78 -76 78 -209q0 -38 -7 -77q-5 -26 -20 -97q-41 -187 -164 -292t-290 -105q-154 0 -238 77zM609 181q76 70 100 190q7 31 12 59
q12 52 12 82q0 89 -52 138q-53 50 -142 50q-108 0 -183 -68q-76 -68 -100 -188q-10 -47 -16 -84q-4 -25 -4 -55q0 -89 50 -141q50 -51 140 -51q109 0 183 68z" />
    <glyph glyph-name="seven" unicode="7" horiz-adv-x="882" 
d="M991 1413l-28 -135l-734 -1278h-149l737 1278h-573l28 135h719z" />
    <glyph glyph-name="eight" unicode="8" 
d="M185 60q-89 81 -89 219q0 35 19 139q21 111 92 197t174 130q-115 64 -115 218q0 39 6 67q2 8 5.5 25.5t5.5 25.5q29 154 143 253q115 100 276 100q144 0 226 -78t82 -205q0 -35 -6 -72l-9 -43q-18 -101 -82 -179q-63 -76 -149 -114q69 -34 103 -97q34 -62 34 -144
q0 -26 -5 -61q-4 -29 -15 -74q-40 -177 -164 -283q-122 -104 -293 -104q-152 0 -239 80zM758 872q70 64 88 164l8 45q6 29 6 54q0 75 -47 120t-129 45q-95 0 -166 -62t-88 -159q-14 -74 -14 -100q0 -77 47 -124q46 -46 127 -46q99 0 168 63zM628 182q76 68 103 187
q7 30 14 66q5 27 5 48q0 87 -51 141q-49 52 -144 52q-106 0 -187 -70q-80 -69 -104 -184q-18 -84 -18 -113q0 -91 52 -143q53 -53 144 -53q110 0 186 69z" />
    <glyph glyph-name="nine" unicode="9" horiz-adv-x="1011" 
d="M647 621q-31 -19 -73 -31q-44 -12 -89 -12q-130 0 -205 76t-75 212q0 30 5 65q3 21 11 63q7 38 10 48q38 187 159 289q123 103 290 103q152 0 241 -80t89 -219q0 -27 -6 -67q0 -3 -19 -105q-15 -79 -49 -146q-32 -65 -92 -151l-469 -666h-164zM735 781q79 70 101 186
q22 110 22 145q0 88 -51 138q-52 50 -141 50q-108 0 -184 -69q-77 -69 -101 -191q-23 -109 -23 -141q0 -86 51 -137q49 -49 140 -49q109 0 186 68z" />
    <glyph glyph-name="colon" unicode=":" horiz-adv-x="397" 
d="M37 188h182l-41 -188h-180zM184 881h183l-41 -189h-181z" />
    <glyph glyph-name="semicolon" unicode=";" horiz-adv-x="399" 
d="M84 190h135l-72 -344l-167 -127zM184 881h183l-41 -189h-181z" />
    <glyph glyph-name="less" unicode="&#x3c;" 
d="M90 506v121l815 331v-145l-624 -248l624 -248v-145z" />
    <glyph glyph-name="equal" unicode="=" 
d="M125 829h815v-137h-815v137zM125 436h815v-135h-815v135z" />
    <glyph glyph-name="greater" unicode="&#x3e;" 
d="M162 317l624 248l-624 248v145l815 -331v-121l-815 -334v145z" />
    <glyph glyph-name="question" unicode="?" horiz-adv-x="880" 
d="M346 485q17 76 40 119q25 46 85 111l141 149q72 76 102 123q30 46 42 105q6 30 6 57q0 72 -43 111q-42 38 -125 38q-199 0 -250 -223h-149q41 175 151 266q113 93 281 93q136 0 212 -70q74 -68 74 -188q0 -42 -8 -84q-16 -76 -52 -136q-35 -57 -112 -139l-151 -164
q-46 -48 -64 -82t-30 -88l-27 -118h-150zM266 190h183l-41 -190h-183z" />
    <glyph glyph-name="at" unicode="@" horiz-adv-x="1785" 
d="M408 -189q-148 72 -229 206q-81 133 -81 313q0 90 21 180l31 139q51 229 171 402t306 267q187 95 424 95q195 0 346 -74q150 -73 232 -208q83 -136 83 -312q0 -81 -18 -166l-29 -137q-44 -202 -149 -301q-106 -100 -244 -100q-84 0 -137 38q-53 37 -70 107
q-94 -145 -277 -145q-127 0 -191 67q-65 68 -65 189q0 47 13 114l35 164q80 373 376 373q78 0 131 -30q54 -31 78 -83l19 92h135l-127 -591q-6 -33 -6 -60q0 -58 31 -89q30 -30 81 -30q80 0 132 66q54 68 88 217l30 137q19 90 19 162q0 220 -136 344q-137 125 -382 125
q-308 0 -501 -167q-191 -166 -253 -462l-31 -145q-18 -86 -18 -164q0 -218 136 -345q137 -128 380 -128q134 0 244 26q109 26 221 78l39 -116q-125 -63 -247 -92q-124 -29 -269 -29q-193 0 -342 73zM1069 485l37 168q10 41 10 92q0 158 -149 158q-196 0 -248 -256l-33 -151
q-12 -57 -12 -105q0 -158 151 -158q189 0 244 252z" />
    <glyph glyph-name="A" unicode="A" horiz-adv-x="1167" 
d="M846 340h-600l-191 -340h-157l813 1413h127l211 -1413h-156zM829 467l-100 737l-412 -737h512z" />
    <glyph glyph-name="B" unicode="B" horiz-adv-x="1263" 
d="M1060 630q46 -68 46 -163q0 -143 -68 -249q-68 -105 -186 -162q-116 -56 -268 -56h-531l301 1413h508q173 0 267 -77t94 -216q0 -135 -82 -244q-83 -111 -215 -149q88 -28 134 -97zM475 1280l-104 -492h329q160 0 265 81q104 80 104 225q0 186 -235 186h-359zM854 220
q100 87 100 237q0 99 -61 148q-62 50 -180 50h-371l-111 -522h355q168 0 268 87z" />
    <glyph glyph-name="C" unicode="C" horiz-adv-x="1249" 
d="M232 75q-113 91 -113 283q0 74 18 166l78 367q60 286 214 413q155 128 380 128q198 0 305 -99t107 -272q0 -28 -7 -68h-149q4 16 4 51q0 121 -71 187q-69 65 -207 65q-169 0 -274 -96q-106 -97 -152 -315l-80 -369q-17 -80 -17 -131q0 -136 78 -200q77 -64 217 -64
q152 0 248 78q97 79 131 217l2 8h146l-3 -8q-51 -202 -193 -317t-357 -115q-192 0 -305 91z" />
    <glyph glyph-name="D" unicode="D" horiz-adv-x="1269" 
d="M354 1413h480q184 0 290 -87q107 -87 107 -275q0 -83 -21 -177l-71 -335q-60 -281 -219 -410t-383 -129h-484zM565 135q338 0 422 395l72 338q20 97 20 162q0 129 -67 189q-66 59 -197 59h-340l-242 -1143h332z" />
    <glyph glyph-name="E" unicode="E" horiz-adv-x="1138" 
d="M475 1278l-104 -492h606l-29 -135h-606l-111 -516h711l-31 -135h-858l301 1413h858l-28 -135h-709z" />
    <glyph glyph-name="F" unicode="F" horiz-adv-x="1103" 
d="M475 1278l-106 -496h606l-29 -135h-606l-137 -647h-150l301 1413h858l-28 -135h-709z" />
    <glyph glyph-name="G" unicode="G" horiz-adv-x="1249" 
d="M232 75q-113 91 -113 285q0 72 18 164l78 367q60 284 214 412q155 129 378 129q199 0 304 -99q106 -100 106 -268q0 -4 -1.5 -13.5t-1.5 -14.5q-2 -24 -2 -42h-149l2 56q0 118 -67 182q-66 63 -203 63q-171 0 -277 -97q-107 -98 -153 -314l-80 -369q-17 -85 -17 -139
q0 -256 283 -256q164 0 264 85t139 269l27 123h-338l29 129h485l-47 -225q-108 -518 -571 -518q-194 0 -307 91z" />
    <glyph glyph-name="H" unicode="H" horiz-adv-x="1288" 
d="M1315 1413l-301 -1413h-150l140 655h-662l-139 -655h-150l301 1413h150l-133 -622h661l133 622h150z" />
    <glyph glyph-name="I" unicode="I" horiz-adv-x="509" 
d="M371 1413h149l-301 -1413h-149z" />
    <glyph glyph-name="J" unicode="J" horiz-adv-x="643" 
d="M-14 135h114q71 0 109 37q39 37 55 119l238 1122h149l-241 -1141q-27 -133 -108 -202q-82 -70 -208 -70h-139z" />
    <glyph glyph-name="K" unicode="K" horiz-adv-x="1212" 
d="M762 854l323 -854h-159l-277 745l-362 -356l-84 -389h-150l301 1413h150l-172 -805l821 805h182z" />
    <glyph glyph-name="L" unicode="L" horiz-adv-x="1085" 
d="M354 1413h150l-271 -1278h705l-29 -135h-854z" />
    <glyph glyph-name="M" unicode="M" horiz-adv-x="1540" 
d="M1567 1413l-301 -1413h-150l234 1096l-568 -813h-116l-230 817l-233 -1100h-150l301 1413h150l256 -952l657 952h150z" />
    <glyph glyph-name="N" unicode="N" horiz-adv-x="1357" 
d="M1384 1413l-301 -1413h-149l-490 1139l-241 -1139h-150l301 1413h150l489 -1134l244 1134h147z" />
    <glyph glyph-name="O" unicode="O" horiz-adv-x="1247" 
d="M231 75q-112 91 -112 283q0 74 18 166l78 367q114 541 582 541q188 0 301 -92q112 -91 112 -283q0 -75 -18 -166l-78 -367q-114 -540 -577 -540q-194 0 -306 91zM817 215q101 95 146 301l79 369q17 76 17 145q0 266 -281 266q-165 0 -266 -96q-100 -96 -147 -315
l-80 -369q-17 -80 -17 -135q0 -260 289 -260q160 0 260 94z" />
    <glyph glyph-name="P" unicode="P" horiz-adv-x="1185" 
d="M1129 1318q98 -86 98 -241q0 -149 -69 -263t-193 -177q-126 -64 -285 -64h-354l-123 -573h-150l299 1403h506q174 0 271 -85zM972 797q103 90 103 260q0 211 -256 211h-346l-119 -561h340q174 0 278 90z" />
    <glyph glyph-name="Q" unicode="Q" horiz-adv-x="1247" 
d="M1098 1340q112 -91 112 -283q0 -75 -18 -166l-78 -367q-78 -364 -315 -483l94 -285l-131 -65l-100 303q-64 -10 -125 -10q-194 0 -306 91t-112 283q0 74 18 166l78 367q114 541 582 541q188 0 301 -92zM1059 1030q0 266 -281 266q-165 0 -266 -96q-100 -96 -147 -315
l-80 -369q-17 -80 -17 -135q0 -260 289 -260q160 0 260 94q101 95 146 301l79 369q17 76 17 145z" />
    <glyph glyph-name="R" unicode="R" horiz-adv-x="1226" 
d="M1125 801q-107 -127 -294 -166l203 -635h-170l-188 621h-340l-133 -621h-150l301 1413h520q169 0 264 -80t95 -227q0 -178 -108 -305zM978 838q101 88 101 241q0 100 -61 149q-62 50 -178 50h-365l-113 -528h355q160 0 261 88z" />
    <glyph glyph-name="S" unicode="S" horiz-adv-x="1126" 
d="M147 76q-108 88 -108 254q0 48 4 69h145q-2 -22 -2 -47q0 -233 281 -233q188 0 289 86q100 85 100 235q0 86 -52 134t-161 69l-160 31q-288 55 -288 293q0 142 66 247q65 103 188 161q122 57 276 57q177 0 283 -85t106 -255q0 -30 -2 -54h-147q4 33 4 52q0 213 -254 213
q-172 0 -272 -86q-99 -85 -99 -222q0 -80 50 -127t153 -65l164 -31q144 -27 221 -99q76 -72 76 -202q0 -228 -148 -356q-146 -127 -405 -127q-201 0 -308 88z" />
    <glyph glyph-name="T" unicode="T" horiz-adv-x="989" 
d="M1135 1278h-406l-270 -1278h-148l271 1278h-404l29 135h956z" />
    <glyph glyph-name="U" unicode="U" horiz-adv-x="1300" 
d="M259 90q-118 102 -118 272q0 47 13 107l200 944h152l-201 -940q-10 -53 -10 -92q0 -122 76 -191q77 -69 209 -69q153 0 258 93t139 259l201 940h149l-203 -952q-45 -216 -194 -344q-150 -129 -365 -129q-187 0 -306 102z" />
    <glyph glyph-name="V" unicode="V" horiz-adv-x="1056" 
d="M199 1413h153l117 -1171l612 1171h158l-762 -1413h-121z" />
    <glyph glyph-name="W" unicode="W" horiz-adv-x="1615" 
d="M1798 1413l-653 -1413h-133l-54 1227l-567 -1227h-133l-59 1413h143l39 -1171l524 1171h189l39 -1171l528 1171h137z" />
    <glyph glyph-name="X" unicode="X" horiz-adv-x="1142" 
d="M530 739l-294 674h176l231 -557l467 557h174l-579 -676l319 -737h-178l-254 621l-518 -621h-176z" />
    <glyph glyph-name="Y" unicode="Y" horiz-adv-x="1007" 
d="M594 590l-127 -590h-148l125 594l-245 819h159l191 -682l479 682h162z" />
    <glyph glyph-name="Z" unicode="Z" horiz-adv-x="1067" 
d="M1139 1278l-967 -1143h731l-29 -135h-903l29 135l965 1143h-693l27 135h868z" />
    <glyph glyph-name="bracketleft" unicode="[" horiz-adv-x="604" 
d="M375 1516h319l-28 -136h-168l-301 -1417h168l-29 -135h-320z" />
    <glyph glyph-name="backslash" unicode="\" horiz-adv-x="802" 
d="M311 1413h123l133 -1433h-123z" />
    <glyph glyph-name="bracketright" unicode="]" horiz-adv-x="604" 
d="M4 -37h168l301 1417h-168l27 136h319l-358 -1688h-320z" />
    <glyph glyph-name="asciicircum" unicode="^" 
d="M477 1413h123l352 -829h-121l-292 698l-293 -698h-123z" />
    <glyph glyph-name="underscore" unicode="_" horiz-adv-x="935" 
d="M-133 -111h936l-21 -102h-938z" />
    <glyph glyph-name="grave" unicode="`" horiz-adv-x="997" 
d="M500 1427h159l150 -256h-117z" />
    <glyph glyph-name="a" unicode="a" horiz-adv-x="1044" 
d="M161 57q-79 69 -79 217q0 60 16 140l45 213q46 218 166 321t277 103q92 0 154 -40q63 -40 91 -118l31 145h139l-221 -1038h-137l31 139q-112 -151 -309 -151q-125 0 -204 69zM622 199q80 85 109 225l39 182q10 44 10 103q0 103 -49 159q-50 58 -149 58q-231 0 -299 -310
l-43 -196q-13 -55 -13 -115q0 -192 185 -192q129 0 210 86z" />
    <glyph glyph-name="b" unicode="b" horiz-adv-x="1044" 
d="M307 26q-66 38 -96 111l-29 -137h-139l301 1413h139l-110 -520q115 160 295 160q133 0 213 -71t80 -220q0 -66 -15 -135l-45 -215q-45 -221 -162 -323q-116 -101 -268 -101q-97 0 -164 38zM650 183q74 70 112 239l43 196q12 51 12 115q0 193 -190 193q-123 0 -203 -87
t-113 -235l-39 -180q-10 -53 -10 -94q0 -100 53 -159q52 -58 158 -58q103 0 177 70z" />
    <glyph glyph-name="c" unicode="c" horiz-adv-x="1032" 
d="M182 61q-96 73 -96 234q0 67 14 131l43 201q91 426 478 426q161 0 245 -78t84 -227q0 -30 -2 -52h-135l2 35q0 99 -50 147q-49 48 -153 48q-127 0 -211 -69q-82 -67 -120 -239l-39 -184q-15 -63 -15 -119q0 -112 60 -157t164 -45q123 0 194 59q72 60 90 170h133
q-18 -164 -133 -259t-295 -95q-163 0 -258 73z" />
    <glyph glyph-name="d" unicode="d" horiz-adv-x="1046" 
d="M161 57q-79 69 -79 217q0 60 16 140l45 213q46 218 164 321t273 103q185 0 251 -158l109 520h141l-299 -1413h-141l31 137q-110 -149 -307 -149q-125 0 -204 69zM622 199q80 85 109 225l39 180q10 44 10 105q0 103 -49 159q-50 58 -149 58q-230 0 -299 -310l-43 -194
q-13 -55 -13 -115q0 -194 187 -194q127 0 208 86z" />
    <glyph glyph-name="e" unicode="e" horiz-adv-x="1032" 
d="M856 978q90 -75 90 -228q0 -60 -16 -140l-25 -118h-649l-12 -64q-15 -63 -15 -119q0 -108 59 -152t161 -44q105 0 178 53q71 52 98 153h135q-33 -160 -144 -245q-112 -86 -286 -86q-158 0 -249 75q-93 77 -93 236q0 57 16 137l37 178q47 225 173 332q127 107 302 107
q150 0 240 -75zM807 739q0 100 -53 144q-52 43 -150 43q-119 0 -203 -69q-83 -68 -118 -239l-4 -22h507l9 37q12 61 12 106z" />
    <glyph glyph-name="f" unicode="f" horiz-adv-x="671" 
d="M512 1161l-27 -123h217l-22 -110h-217l-199 -928h-139l197 928h-134l25 110h131l25 117q24 120 106 188q84 70 199 70h108l-24 -110h-86q-131 0 -160 -142z" />
    <glyph glyph-name="g" unicode="g" horiz-adv-x="1046" 
d="M101 -251q-83 72 -83 200h140q6 -152 200 -152q242 0 299 273l31 145q-107 -152 -305 -152q-125 0 -205 71t-80 220q0 53 17 138l30 143q46 219 163 322q116 102 270 102q95 0 162 -41q68 -42 96 -117l30 146h140l-207 -965q-40 -189 -157 -298q-116 -108 -296 -108
q-161 0 -245 73zM637 275q81 87 111 227l24 112q12 56 12 103q0 101 -51 159t-151 58q-104 0 -182 -70q-76 -68 -115 -239l-29 -129q-12 -51 -12 -113q0 -193 184 -193q130 0 209 85z" />
    <glyph glyph-name="h" unicode="h" horiz-adv-x="1069" 
d="M344 1413h139l-106 -502q113 140 299 140q134 0 211 -69q76 -69 76 -196q0 -44 -13 -104l-145 -682h-139l139 662q10 49 10 83q0 89 -51 135q-50 46 -143 46q-113 0 -192 -69q-78 -68 -105 -195l-142 -662h-139z" />
    <glyph glyph-name="i" unicode="i" horiz-adv-x="446" 
d="M264 1038h139l-221 -1038h-137zM336 1393h147l-39 -185h-147z" />
    <glyph glyph-name="j" unicode="j" horiz-adv-x="483" 
d="M356 1413h148l-39 -184h-148zM-193 -184h84q71 0 109 37q39 37 55 116l228 1069h139l-229 -1077q-28 -133 -109 -203q-80 -69 -205 -69h-98z" />
    <glyph glyph-name="k" unicode="k" horiz-adv-x="1001" 
d="M598 637l254 -637h-154l-206 537l-244 -230l-66 -307h-139l301 1413h139l-192 -905l557 530h176z" />
    <glyph glyph-name="l" unicode="l" horiz-adv-x="559" 
d="M143 47q-53 47 -53 137q0 35 10 88l244 1141h139l-239 -1132q-8 -35 -8 -64q0 -48 25 -69t79 -21h84l-27 -127h-98q-103 0 -156 47z" />
    <glyph glyph-name="m" unicode="m" horiz-adv-x="1691" 
d="M264 1038h139l-28 -127q58 68 135 104q78 36 168 36q109 0 178 -45t90 -129q134 174 346 174q138 0 216 -70q77 -69 77 -195q0 -48 -12 -104l-146 -682h-139l142 662q10 49 10 81q0 91 -51 137q-50 46 -144 46q-114 0 -192 -69t-105 -189l-141 -668h-141l141 662
q10 44 10 81q0 91 -51 137q-50 46 -143 46q-113 0 -192 -69q-78 -68 -105 -195l-142 -662h-139z" />
    <glyph glyph-name="n" unicode="n" horiz-adv-x="1071" 
d="M264 1038h139l-28 -127q59 72 136 105q81 35 169 35q138 0 211 -69q74 -69 74 -194q0 -46 -13 -106l-145 -682h-139l139 659q10 53 10 89q0 88 -49 133q-50 45 -139 45q-113 0 -195 -69q-81 -68 -108 -195l-142 -662h-139z" />
    <glyph glyph-name="o" unicode="o" horiz-adv-x="1034" 
d="M174 58q-90 70 -90 225q0 67 14 131l45 213q47 221 173 323q127 103 307 103q149 0 239 -72t90 -221q0 -57 -16 -133l-45 -213q-46 -222 -172 -325q-123 -101 -301 -101q-155 0 -244 70zM636 181q82 70 116 241l41 196q14 59 14 115q0 193 -205 193q-120 0 -203 -69
q-80 -67 -118 -239l-41 -198q-13 -68 -13 -111q0 -109 57 -152q58 -44 154 -44q118 0 198 68z" />
    <glyph glyph-name="p" unicode="p" 
d="M264 1038h142l-31 -145q56 77 134 118q76 40 167 40q130 0 210 -72q79 -72 79 -219q0 -64 -15 -133l-47 -224q-46 -216 -163 -316q-116 -99 -267 -99q-186 0 -258 157l-96 -456h-139zM766 420l41 196q12 66 12 111q0 107 -52 153t-136 46q-125 0 -206 -87
q-82 -88 -112 -233l-37 -172q-12 -56 -12 -102q0 -103 52 -161t157 -58q230 0 293 307z" />
    <glyph glyph-name="q" unicode="q" horiz-adv-x="1044" 
d="M672 137q-110 -149 -307 -149q-125 0 -204 69t-79 217q0 60 16 140l45 213q47 219 165 321q120 103 272 103q191 0 251 -158l31 145h139l-286 -1349h-140zM622 199q80 85 109 225l39 180q10 44 10 103q0 101 -51 160t-151 59q-226 0 -295 -310l-43 -194q-13 -55 -13 -115
q0 -194 185 -194q129 0 210 86z" />
    <glyph glyph-name="r" unicode="r" horiz-adv-x="692" 
d="M264 1038h139l-30 -139q61 80 138 116q81 38 167 38q38 0 76 -6l-31 -140q-45 17 -102 17q-109 0 -191 -76q-81 -75 -108 -205l-138 -643h-139z" />
    <glyph glyph-name="s" unicode="s" horiz-adv-x="954" 
d="M137 69q-88 81 -88 230h131q0 -96 57 -144q58 -49 179 -49q112 0 190 58q76 57 76 155q0 65 -39 95t-121 45l-121 22q-126 23 -188 76q-59 50 -59 150q0 99 50 179t141 123q93 44 214 44q177 0 259 -78q83 -78 83 -219h-135q0 94 -53 138t-170 44q-114 0 -182 -58
t-68 -147q0 -57 37 -87q36 -29 114 -44l129 -24q131 -24 191 -81q59 -56 59 -157q0 -161 -116 -256q-117 -96 -308 -96q-173 0 -262 81z" />
    <glyph glyph-name="t" unicode="t" horiz-adv-x="718" 
d="M326 264q-4 -15 -4 -47q0 -94 108 -94h82l-27 -123h-104q-100 0 -152 49q-53 50 -53 135q0 37 8 74l144 670h-162l22 110h162l51 238l154 65l-66 -303h236l-23 -110h-235z" />
    <glyph glyph-name="u" unicode="u" horiz-adv-x="1071" 
d="M196 59q-83 72 -83 207q0 50 14 121l137 651h142l-138 -641q-14 -67 -14 -112q0 -85 47 -129q46 -43 150 -43q132 0 200 68q72 72 101 218l137 639h139l-139 -657q-84 -393 -451 -393q-161 0 -242 71z" />
    <glyph glyph-name="v" unicode="v" horiz-adv-x="899" 
d="M139 1038h148l94 -833l448 833h152l-580 -1038h-125z" />
    <glyph glyph-name="w" unicode="w" horiz-adv-x="1462" 
d="M139 1038h148l57 -831l432 831h127l80 -831l412 831h149l-536 -1038h-127l-84 838l-437 -838h-127z" />
    <glyph glyph-name="x" unicode="x" horiz-adv-x="868" 
d="M514 541l213 -541h-143l-168 422l-336 -422h-160l449 539l-201 499h147l154 -387l305 387h158z" />
    <glyph glyph-name="y" unicode="y" horiz-adv-x="901" 
d="M983 1038l-645 -1151q-60 -105 -134 -151q-76 -47 -181 -47h-62l27 127h49q78 0 120 29q44 31 83 102l36 67l-137 1024h150l96 -823l449 823h149z" />
    <glyph glyph-name="z" unicode="z" horiz-adv-x="935" 
d="M897 909l-696 -780h530l-26 -129h-695l29 129l694 780h-528l26 129h693z" />
    <glyph glyph-name="braceleft" unicode="{" horiz-adv-x="696" 
d="M156 -25q0 36 8 78l82 391q8 37 8 68q0 51 -28 74q-27 22 -87 24l29 133q77 1 119 40q41 38 59 126l80 381q47 226 258 226h102l-26 -125h-74q-47 0 -75 -25t-40 -80l-77 -366q-24 -112 -63 -167q-38 -53 -114 -77q45 -17 66 -46q20 -29 20 -81q0 -53 -14 -115l-80 -377
q-4 -15 -4 -39q0 -65 76 -65h72l-25 -125h-102q-170 0 -170 147z" />
    <glyph glyph-name="bar" unicode="|" horiz-adv-x="978" 
d="M453 1516h137v-1686h-137v1686z" />
    <glyph glyph-name="braceright" unicode="}" horiz-adv-x="940" 
d="M121 -47h72q47 0 75 24q29 24 41 80l80 377q23 110 63 165q38 53 111 77q-45 16 -64 46q-20 31 -20 83q0 49 15 115l77 366q4 13 4 39q0 66 -75 66h-74l27 125h102q172 0 172 -152q0 -37 -8 -74l-82 -381q-8 -37 -8 -67q0 -52 27 -74q28 -24 89 -25l-30 -133
q-75 -1 -118 -40q-42 -38 -60 -126l-82 -391q-47 -225 -258 -225h-103z" />
    <glyph glyph-name="asciitilde" unicode="~" 
d="M599 453q-41 18 -95 53q-45 29 -77 45q-28 14 -65 14q-49 0 -84 -26t-75 -97l-101 62q43 94 111 142t149 48q52 0 93 -18q39 -17 98 -53q46 -27 79 -43q30 -15 64 -15q48 0 85 28q35 27 75 95l100 -63q-46 -94 -112 -142q-67 -49 -150 -49q-51 0 -95 19z" />
    <glyph glyph-name="uni00A0" unicode="&#xa0;" horiz-adv-x="444" 
 />
    <glyph glyph-name="exclamdown" unicode="&#xa1;" horiz-adv-x="489" 
d="M264 1038h185l-41 -192h-185zM213 637h115l-172 -948h-172z" />
    <glyph glyph-name="cent" unicode="&#xa2;" horiz-adv-x="1032" 
d="M813 696l2 35q0 175 -160 193l-174 -809q109 8 173 66t81 161h133q-18 -161 -128 -256q-108 -93 -285 -98l-41 -193h-119l43 201q-117 21 -184 94q-68 74 -68 205q0 67 14 131l43 201q84 394 420 424l41 192h119l-41 -194q131 -15 200 -92q68 -75 68 -209q0 -30 -2 -52
h-135zM263 183q35 -45 102 -62l170 799q-95 -16 -159 -87q-65 -71 -95 -215l-39 -184q-15 -63 -15 -119q0 -85 36 -132z" />
    <glyph glyph-name="sterling" unicode="&#xa3;" horiz-adv-x="892" 
d="M889 1375q65 -58 65 -167q0 -37 -10 -86h-147q6 28 6 52q0 58 -33 89q-32 31 -92 31q-76 0 -128 -48t-73 -142l-80 -375h285l-29 -135h-284l-50 -238q-17 -75 -43 -126q-27 -53 -71 -91h540l-30 -139h-715l29 127q57 30 89 80t48 131l53 256h-135l29 135h135l74 352
q34 165 137 259t250 94q113 0 180 -59z" />
    <glyph glyph-name="currency" unicode="&#xa4;" horiz-adv-x="1255" 
d="M823 340q-115 -74 -248 -74q-135 0 -221 74l-174 -143l-74 98l175 141q-33 69 -33 144q0 84 36 171q36 86 97 152l-115 146l117 96l115 -144q117 72 247 72q129 0 220 -72l174 144l75 -96l-176 -144q35 -67 35 -147q0 -86 -36 -171q-36 -86 -97 -151l115 -143l-117 -98z
M766 438q79 47 125 126q47 80 47 169q0 96 -59 155q-60 60 -160 60q-93 0 -170 -49q-78 -50 -123 -130q-45 -81 -45 -167q0 -94 59 -152q61 -59 160 -59q87 0 166 47z" />
    <glyph glyph-name="yen" unicode="&#xa5;" horiz-adv-x="929" 
d="M348 317h-291l25 115h291l28 137h-288l24 117h250l-176 727h168l137 -665l418 665h166l-484 -727h250l-26 -117h-289l-29 -137h289l-25 -115h-288l-68 -317h-149z" />
    <glyph glyph-name="brokenbar" unicode="&#xa6;" horiz-adv-x="978" 
d="M453 1516h137v-721h-137v721zM453 555h137v-725h-137v725z" />
    <glyph glyph-name="section" unicode="&#xa7;" horiz-adv-x="1046" 
d="M142 -285q-76 60 -76 172q0 45 12 105h141q-8 -37 -8 -70q0 -135 151 -135q90 0 149 47q58 46 75 133q6 30 6 56q0 64 -50 105q-49 40 -165 69q-215 53 -215 258q0 51 12 108q24 118 95 206t177 122q-110 67 -110 190q0 110 49 196q49 87 136 136q86 49 200 49
q133 0 199 -59q67 -60 67 -166q0 -55 -10 -96h-139q8 48 8 63q0 127 -141 127q-98 0 -158 -61q-60 -62 -60 -168q0 -64 45 -101q42 -35 158 -69q117 -33 166 -94t49 -164q0 -50 -12 -111q-23 -118 -94 -204t-174 -119q118 -63 118 -191q0 -37 -10 -86q-29 -142 -129 -224
q-101 -83 -248 -83q-139 0 -214 59zM651 388q70 64 94 175q9 47 9 76q0 80 -43 122t-125 42q-100 0 -169 -63q-68 -62 -95 -177q-9 -41 -9 -74q0 -76 44 -120q43 -43 126 -43q100 0 168 62zM659 1448z" />
    <glyph glyph-name="dieresis" unicode="&#xa8;" horiz-adv-x="1024" 
d="M436 1360h156l-37 -176h-156zM786 1360h156l-37 -176h-155z" />
    <glyph glyph-name="copyright" unicode="&#xa9;" horiz-adv-x="1718" 
d="M529 71q-160 91 -248 254t-88 371t89 372q87 162 248 254q158 91 367 91t367 -91q161 -92 248 -254q90 -166 90 -372q0 -205 -90 -371q-87 -162 -248 -254q-158 -91 -367 -91q-208 0 -368 91zM1206 164q134 77 206 213q73 138 73 319q0 182 -73 320q-72 136 -206 213
q-133 76 -309 76q-177 0 -310 -76q-136 -78 -207 -213q-73 -138 -73 -320q0 -181 73 -319q71 -135 207 -213q133 -76 310 -76q176 0 309 76zM682 379q-82 76 -82 244v157q0 168 82 244t221 76q132 0 211 -70q78 -69 78 -188v-11h-107v7q0 77 -48 119t-130 42q-93 0 -145 -50
q-51 -49 -51 -175v-145q0 -127 51 -177q53 -51 145 -51q83 0 130 43q48 44 48 119v8h107v-10q0 -119 -78 -188q-79 -70 -209 -70q-141 0 -223 76z" />
    <glyph glyph-name="ordfeminine" unicode="&#xaa;" horiz-adv-x="679" 
d="M252 916q-47 44 -47 135q0 37 10 86l27 131q27 132 96 198t164 66q106 0 149 -94l19 86h127l-135 -643h-134l19 75q-57 -84 -170 -84q-78 0 -125 44zM534 1032q36 39 52 111l24 114q6 29 6 52q0 47 -24 75q-24 29 -74 29q-112 0 -145 -149l-27 -125q-6 -27 -6 -52
q0 -48 26 -72t68 -24q62 0 100 41zM524 1735z" />
    <glyph glyph-name="guillemotleft" unicode="&#xab;" horiz-adv-x="978" 
d="M55 541l486 405l-35 -170l-283 -235l183 -236l-37 -170zM430 541l485 405l-34 -170l-283 -235l182 -236l-37 -170z" />
    <glyph glyph-name="logicalnot" unicode="&#xac;" 
d="M782 541h-680v127h822v-402h-142v275z" />
    <glyph glyph-name="uni00AD" unicode="&#xad;" horiz-adv-x="806" 
d="M176 778h563l-26 -135h-563z" />
    <glyph glyph-name="registered" unicode="&#xae;" horiz-adv-x="1118" 
d="M468 678q-88 51 -137 141q-50 91 -50 201q0 111 50 200t138 140t197 51q110 0 197 -51t137 -140q51 -91 51 -200q0 -113 -50 -202q-50 -90 -137 -140q-88 -51 -198 -51q-111 0 -198 51zM894 783q89 94 89 237t-89 235q-90 93 -228 93q-139 0 -229 -93q-89 -92 -89 -235
t89 -237q89 -93 229 -93t228 93zM522 1241h166q71 0 108 -34q38 -35 38 -95q0 -42 -22 -75q-21 -31 -58 -46l90 -188h-80l-86 180h-82v-180h-74v438zM688 1049q72 0 72 63q0 64 -72 64h-92v-127h92z" />
    <glyph glyph-name="macron" unicode="&#xaf;" horiz-adv-x="997" 
d="M418 1335h532l-26 -127h-533z" />
    <glyph glyph-name="degree" unicode="&#xb0;" horiz-adv-x="751" 
d="M305 942q-82 82 -82 205t82 205t205 82q122 0 204 -82q83 -83 83 -205t-83 -205q-82 -82 -204 -82q-123 0 -205 82zM639 1014q51 52 51 133q0 82 -50 135t-130 53t-131 -53q-51 -52 -51 -135q0 -81 51 -133q51 -53 131 -53q78 0 129 53z" />
    <glyph glyph-name="plusminus" unicode="&#xb1;" 
d="M895 707v-136h-340v-340h-135v340h-340v136h340v340h135v-340h340zM80 127h815v-135h-815v135z" />
    <glyph glyph-name="uni00B2" unicode="&#xb2;" horiz-adv-x="788" 
d="M258 987l365 385q88 94 88 182q0 38 -22 60q-20 20 -62 20q-49 0 -84 -30t-47 -93l-4 -22h-134l7 31q22 105 101 167q78 62 191 62q93 0 147 -45t54 -121q0 -81 -36 -147q-37 -67 -101 -133l-283 -302h299l-24 -120h-480z" />
    <glyph glyph-name="uni00B3" unicode="&#xb3;" horiz-adv-x="735" 
d="M291 910q-55 42 -55 116q0 31 14 84h123q-6 -33 -6 -47q0 -37 24 -59q25 -23 68 -23q72 0 112 59q41 61 41 134q0 43 -25 67q-27 25 -75 25h-43l25 114h43q67 0 105 53t38 119q0 39 -22 61q-21 21 -62 21q-51 0 -85 -28q-33 -27 -44 -78l-4 -21h-125l4 23q18 99 91 160
q71 59 183 59q92 0 148 -47q55 -46 55 -131q0 -76 -42 -145q-41 -68 -118 -95q46 -17 68 -54q23 -38 23 -89q0 -88 -40 -159q-42 -74 -111 -117q-71 -44 -157 -44q-95 0 -151 42z" />
    <glyph glyph-name="acute" unicode="&#xb4;" horiz-adv-x="1024" 
d="M719 1427h172l-299 -256h-129z" />
    <glyph glyph-name="uni00B5" unicode="&#xb5;" horiz-adv-x="1056" 
d="M264 1038h142l-144 -673q-10 -49 -10 -93q0 -77 49 -119t135 -42q104 0 186 67q83 68 107 187l143 673h142l-221 -1038h-140l27 123q-117 -139 -293 -139q-133 0 -188 79l-80 -374h-139z" />
    <glyph glyph-name="paragraph" unicode="&#xb6;" horiz-adv-x="1171" 
d="M555 557q-146 11 -225 97q-80 88 -80 225q0 51 12 106q23 118 97 218q71 95 186 154q111 56 252 56h401l-367 -1724h-137l338 1591h-186l-338 -1591h-137z" />
    <glyph glyph-name="periodcentered" unicode="&#xb7;" horiz-adv-x="489" 
d="M182 647h180l-38 -190h-183z" />
    <glyph glyph-name="cedilla" unicode="&#xb8;" horiz-adv-x="997" 
d="M410 25h122l-176 -332h-147z" />
    <glyph glyph-name="uni00B9" unicode="&#xb9;" horiz-adv-x="514" 
d="M487 1585l-174 -112l31 151l174 111h144l-183 -854h-141z" />
    <glyph glyph-name="ordmasculine" unicode="&#xba;" horiz-adv-x="675" 
d="M266 919q-61 46 -61 142q0 36 10 80l27 123q30 138 104 203t193 65q101 0 160 -47t59 -144q0 -33 -8 -75l-25 -125q-51 -269 -295 -269q-102 0 -164 47zM538 1026q36 34 54 117l26 121q7 35 7 53q0 48 -28 73q-26 23 -75 23q-56 0 -94 -35q-37 -34 -55 -114l-27 -125
q-6 -27 -6 -52q0 -96 106 -96q55 0 92 35zM543 1735z" />
    <glyph glyph-name="guillemotright" unicode="&#xbb;" horiz-adv-x="980" 
d="M111 305l280 236l-182 235l37 170l313 -405l-485 -406zM485 305l281 236l-182 235l37 170l313 -405l-485 -406z" />
    <glyph glyph-name="onequarter" unicode="&#xbc;" horiz-adv-x="1585" 
d="M420 1264l-174 -113l30 152l175 110h143l-182 -854h-142zM1425 154h-79l-33 -154h-142l33 154h-319l24 120l363 580h139l-362 -580h182l43 201h139l-43 -201h82zM1206 1413h127l-1065 -1413h-129z" />
    <glyph glyph-name="onehalf" unicode="&#xbd;" horiz-adv-x="1667" 
d="M420 1264l-174 -113l30 152l175 110h143l-182 -854h-142zM948 106l365 386q88 94 88 182q0 37 -22 59q-21 21 -62 21q-48 0 -84 -31q-35 -30 -47 -92l-4 -23h-133l6 31q22 105 101 167q78 62 192 62q92 0 146 -45t54 -121q0 -81 -36 -147q-37 -67 -101 -133l-283 -301
h299l-24 -121h-479zM1206 1413h127l-1065 -1413h-129z" />
    <glyph glyph-name="threequarters" unicode="&#xbe;" horiz-adv-x="1806" 
d="M219 589q-55 42 -55 116q0 30 14 83h123q-6 -33 -6 -47q0 -37 24 -59q25 -23 68 -23q72 0 113 60q41 61 41 133q0 44 -26 68q-25 24 -75 24h-43l25 115h43q68 0 105 52q38 53 38 120q0 39 -21 60q-22 22 -63 22q-50 0 -85 -29q-33 -27 -44 -78l-4 -20h-125l4 22
q18 99 91 160q71 59 184 59q91 0 147 -47t56 -131q0 -75 -42 -144q-41 -68 -118 -95q44 -16 67 -55q23 -38 23 -89q0 -87 -40 -158q-42 -74 -111 -117q-71 -44 -156 -44q-97 0 -152 42zM1647 154h-80l-33 -154h-141l32 154h-319l24 120l363 580h139l-362 -580h182l43 201
h139l-43 -201h82zM1427 1413h127l-1065 -1413h-129z" />
    <glyph glyph-name="questiondown" unicode="&#xbf;" horiz-adv-x="880" 
d="M471 1038h182l-41 -190h-182zM58 -262q-78 68 -78 188q0 109 45 193t137 176l123 123q52 52 72 89q19 35 34 101l17 72h149l-18 -74q-21 -85 -46 -133q-24 -47 -94 -117l-120 -118q-74 -71 -112 -141q-36 -66 -36 -146q0 -72 43 -111q44 -39 129 -39q203 0 244 226h149
q-33 -173 -141 -266t-279 -93q-137 0 -218 70z" />
    <glyph glyph-name="Agrave" unicode="&#xc0;" horiz-adv-x="1167" 
d="M846 340h-600l-191 -340h-157l813 1413h127l211 -1413h-156zM829 467l-100 737l-412 -737h512zM578 1774h159l150 -256h-117z" />
    <glyph glyph-name="Aacute" unicode="&#xc1;" horiz-adv-x="1167" 
d="M846 340h-600l-191 -340h-157l813 1413h127l211 -1413h-156zM829 467l-100 737l-412 -737h512zM887 1774h172l-299 -256h-129z" />
    <glyph glyph-name="Acircumflex" unicode="&#xc2;" horiz-adv-x="1167" 
d="M846 340h-600l-191 -340h-157l813 1413h127l211 -1413h-156zM829 467l-100 737l-412 -737h512zM770 1792h113l155 -295h-127l-104 195l-193 -195h-125z" />
    <glyph glyph-name="Atilde" unicode="&#xc3;" horiz-adv-x="1167" 
d="M846 340h-600l-191 -340h-157l813 1413h127l211 -1413h-156zM829 467l-100 737l-412 -737h512zM539 1636q48 43 79 59q37 19 78 19q35 0 58 -10q29 -12 55 -31t51 -29t49 -10q37 0 69 18q36 21 83 62l-27 -125q-82 -76 -157 -76q-35 0 -60 11q-32 14 -57 30
q-36 23 -52 29q-21 8 -44 8q-39 0 -69 -17q-33 -19 -83 -63z" />
    <glyph glyph-name="Adieresis" unicode="&#xc4;" horiz-adv-x="1167" 
d="M846 340h-600l-191 -340h-157l813 1413h127l211 -1413h-156zM829 467l-100 737l-412 -737h512zM553 1706h156l-37 -176h-156zM903 1706h156l-37 -176h-156z" />
    <glyph glyph-name="Aring" unicode="&#xc5;" horiz-adv-x="1167" 
d="M846 340h-600l-191 -340h-157l811 1411q-47 23 -74 68t-27 100q0 83 52 135q53 53 135 53q80 0 133 -53t53 -135q0 -67 -39 -117q-38 -48 -102 -65l209 -1397h-156zM719 1658q-31 -33 -31 -79q0 -47 31 -78t76 -31q44 0 75 31t31 78q0 46 -31 79q-30 32 -75 32
q-46 0 -76 -32zM829 467l-100 737l-412 -737h512zM770 1413z" />
    <glyph glyph-name="AE" unicode="&#xc6;" horiz-adv-x="1783" 
d="M1174 1278l-105 -492h551l-27 -135h-553l-108 -516h655l-31 -135h-802l73 350h-495l-264 -350h-170l1069 1413h891l-29 -135h-655zM1024 1270l-596 -793h428z" />
    <glyph glyph-name="Ccedilla" unicode="&#xc7;" horiz-adv-x="1249" 
d="M1065 993q4 16 4 51q0 121 -71 187q-69 65 -207 65q-169 0 -274 -96q-106 -97 -152 -315l-80 -369q-17 -80 -17 -131q0 -136 78 -200q77 -64 217 -64q152 0 248 78q97 79 131 217l2 8h146l-3 -8q-47 -185 -173 -299q-127 -115 -316 -131l-156 -293h-147l178 293
q-166 15 -259 105q-95 92 -95 267q0 74 18 166l78 367q60 286 214 413q155 128 380 128q198 0 305 -99t107 -272q0 -28 -7 -68h-149z" />
    <glyph glyph-name="Egrave" unicode="&#xc8;" horiz-adv-x="1138" 
d="M475 1278l-104 -492h606l-29 -135h-606l-111 -516h711l-31 -135h-858l301 1413h858l-28 -135h-709zM602 1802h160l149 -256h-116z" />
    <glyph glyph-name="Eacute" unicode="&#xc9;" horiz-adv-x="1138" 
d="M475 1278l-104 -492h606l-29 -135h-606l-111 -516h711l-31 -135h-858l301 1413h858l-28 -135h-709zM911 1802h172l-299 -256h-129z" />
    <glyph glyph-name="Ecircumflex" unicode="&#xca;" horiz-adv-x="1138" 
d="M475 1278l-104 -492h606l-29 -135h-606l-111 -516h711l-31 -135h-858l301 1413h858l-28 -135h-709zM795 1821h112l156 -295h-127l-105 194l-192 -194h-125z" />
    <glyph glyph-name="Edieresis" unicode="&#xcb;" horiz-adv-x="1138" 
d="M475 1278l-104 -492h606l-29 -135h-606l-111 -516h711l-31 -135h-858l301 1413h858l-28 -135h-709zM578 1735h155l-37 -176h-155zM928 1735h155l-36 -176h-156z" />
    <glyph glyph-name="Igrave" unicode="&#xcc;" horiz-adv-x="509" 
d="M371 1413h149l-301 -1413h-149zM283 1802h159l150 -256h-117z" />
    <glyph glyph-name="Iacute" unicode="&#xcd;" horiz-adv-x="509" 
d="M371 1413h149l-301 -1413h-149zM592 1802h172l-299 -256h-129z" />
    <glyph glyph-name="Icircumflex" unicode="&#xce;" horiz-adv-x="509" 
d="M371 1413h149l-301 -1413h-149zM475 1821h113l155 -295h-127l-104 194l-193 -194h-124z" />
    <glyph glyph-name="Idieresis" unicode="&#xcf;" horiz-adv-x="509" 
d="M371 1413h149l-301 -1413h-149zM258 1735h156l-37 -176h-156zM608 1735h156l-37 -176h-156z" />
    <glyph glyph-name="Eth" unicode="&#xd0;" horiz-adv-x="1345" 
d="M1200 1326q107 -87 107 -275q0 -83 -21 -177l-72 -335q-60 -281 -219 -410t-383 -129h-483l137 647h-164l29 135h164l135 631h479q185 0 291 -87zM1155 1030q0 129 -68 189q-66 59 -196 59h-340l-105 -496h308l-27 -135h-309l-109 -512h332q338 0 422 395l72 338
q20 97 20 162z" />
    <glyph glyph-name="Ntilde" unicode="&#xd1;" horiz-adv-x="1357" 
d="M1384 1413l-301 -1413h-149l-490 1139l-241 -1139h-150l301 1413h150l489 -1134l244 1134h147zM647 1665q44 39 80 58q38 20 78 20q34 0 57 -10q31 -14 56 -31q28 -21 51 -30q22 -9 49 -9q38 0 68 17q33 19 83 63l-26 -125q-82 -76 -158 -76q-36 0 -59 10q-30 13 -58 31
q-36 23 -52 29q-21 8 -44 8q-39 0 -69 -17t-82 -63z" />
    <glyph glyph-name="Ograve" unicode="&#xd2;" horiz-adv-x="1247" 
d="M231 75q-112 91 -112 283q0 74 18 166l78 367q114 541 582 541q188 0 301 -92q112 -91 112 -283q0 -75 -18 -166l-78 -367q-114 -540 -577 -540q-194 0 -306 91zM817 215q101 95 146 301l79 369q17 76 17 145q0 266 -281 266q-165 0 -266 -96q-100 -96 -147 -315
l-80 -369q-17 -80 -17 -135q0 -260 289 -260q160 0 260 94zM631 1802h160l149 -256h-117z" />
    <glyph glyph-name="Oacute" unicode="&#xd3;" horiz-adv-x="1247" 
d="M231 75q-112 91 -112 283q0 74 18 166l78 367q114 541 582 541q188 0 301 -92q112 -91 112 -283q0 -75 -18 -166l-78 -367q-114 -540 -577 -540q-194 0 -306 91zM817 215q101 95 146 301l79 369q17 76 17 145q0 266 -281 266q-165 0 -266 -96q-100 -96 -147 -315
l-80 -369q-17 -80 -17 -135q0 -260 289 -260q160 0 260 94zM940 1802h172l-299 -256h-129z" />
    <glyph glyph-name="Ocircumflex" unicode="&#xd4;" horiz-adv-x="1247" 
d="M231 75q-112 91 -112 283q0 74 18 166l78 367q114 541 582 541q188 0 301 -92q112 -91 112 -283q0 -75 -18 -166l-78 -367q-114 -540 -577 -540q-194 0 -306 91zM817 215q101 95 146 301l79 369q17 76 17 145q0 266 -281 266q-165 0 -266 -96q-100 -96 -147 -315
l-80 -369q-17 -80 -17 -135q0 -260 289 -260q160 0 260 94zM823 1821h113l156 -295h-127l-105 194l-192 -194h-125z" />
    <glyph glyph-name="Otilde" unicode="&#xd5;" horiz-adv-x="1247" 
d="M231 75q-112 91 -112 283q0 74 18 166l78 367q114 541 582 541q188 0 301 -92q112 -91 112 -283q0 -75 -18 -166l-78 -367q-114 -540 -577 -540q-194 0 -306 91zM817 215q101 95 146 301l79 369q17 76 17 145q0 266 -281 266q-165 0 -266 -96q-100 -96 -147 -315
l-80 -369q-17 -80 -17 -135q0 -260 289 -260q160 0 260 94zM592 1665q44 39 80 58q38 20 78 20q34 0 57 -10q29 -13 55 -31q28 -21 51 -30t50 -9q38 0 68 17q33 19 83 63l-27 -125q-82 -76 -157 -76q-37 0 -60 10q-27 12 -57 31q-36 23 -52 29q-21 8 -44 8q-39 0 -69 -17
q-33 -19 -83 -63z" />
    <glyph glyph-name="Odieresis" unicode="&#xd6;" horiz-adv-x="1247" 
d="M231 75q-112 91 -112 283q0 74 18 166l78 367q114 541 582 541q188 0 301 -92q112 -91 112 -283q0 -75 -18 -166l-78 -367q-114 -540 -577 -540q-194 0 -306 91zM817 215q101 95 146 301l79 369q17 76 17 145q0 266 -281 266q-165 0 -266 -96q-100 -96 -147 -315
l-80 -369q-17 -80 -17 -135q0 -260 289 -260q160 0 260 94zM606 1735h156l-37 -176h-156zM956 1735h156l-37 -176h-155z" />
    <glyph glyph-name="multiply" unicode="&#xd7;" 
d="M627 567l252 -254l-91 -90l-253 252l-252 -252l-93 90l254 254l-254 252l93 90l252 -252l253 252l91 -90z" />
    <glyph glyph-name="Oslash" unicode="&#xd8;" horiz-adv-x="1247" 
d="M1161 1264q49 -85 49 -207q0 -75 -18 -166l-78 -367q-114 -540 -577 -540q-202 0 -308 94l-94 -119h-119l152 193q-49 85 -49 206q0 74 18 166l78 367q114 541 582 541q196 0 303 -95l92 117h119zM279 293l725 921q-69 82 -226 82q-165 0 -266 -96q-100 -96 -147 -315
l-80 -369q-17 -80 -17 -135q0 -41 11 -88zM1049 1120l-723 -919q72 -80 231 -80q160 0 260 94q101 95 146 301l79 369q17 76 17 145q0 47 -10 90z" />
    <glyph glyph-name="Ugrave" unicode="&#xd9;" horiz-adv-x="1300" 
d="M259 90q-118 102 -118 272q0 47 13 107l200 944h152l-201 -940q-10 -53 -10 -92q0 -122 76 -191q77 -69 209 -69q153 0 258 93t139 259l201 940h149l-203 -952q-45 -216 -194 -344q-150 -129 -365 -129q-187 0 -306 102zM668 1802h159l150 -256h-117z" />
    <glyph glyph-name="Uacute" unicode="&#xda;" horiz-adv-x="1300" 
d="M259 90q-118 102 -118 272q0 47 13 107l200 944h152l-201 -940q-10 -53 -10 -92q0 -122 76 -191q77 -69 209 -69q153 0 258 93t139 259l201 940h149l-203 -952q-45 -216 -194 -344q-150 -129 -365 -129q-187 0 -306 102zM977 1802h172l-299 -256h-129z" />
    <glyph glyph-name="Ucircumflex" unicode="&#xdb;" horiz-adv-x="1300" 
d="M259 90q-118 102 -118 272q0 47 13 107l200 944h152l-201 -940q-10 -53 -10 -92q0 -122 76 -191q77 -69 209 -69q153 0 258 93t139 259l201 940h149l-203 -952q-45 -216 -194 -344q-150 -129 -365 -129q-187 0 -306 102zM860 1821h113l155 -295h-127l-104 194l-192 -194
h-125z" />
    <glyph glyph-name="Udieresis" unicode="&#xdc;" horiz-adv-x="1300" 
d="M259 90q-118 102 -118 272q0 47 13 107l200 944h152l-201 -940q-10 -53 -10 -92q0 -122 76 -191q77 -69 209 -69q153 0 258 93t139 259l201 940h149l-203 -952q-45 -216 -194 -344q-150 -129 -365 -129q-187 0 -306 102zM643 1735h156l-37 -176h-156zM993 1735h156
l-37 -176h-156z" />
    <glyph glyph-name="Yacute" unicode="&#xdd;" horiz-adv-x="1007" 
d="M594 590l-127 -590h-148l125 594l-245 819h159l191 -682l479 682h162zM827 1802h172l-299 -256h-129z" />
    <glyph glyph-name="Thorn" unicode="&#xde;" horiz-adv-x="1185" 
d="M1057 1076q96 -79 96 -224q0 -42 -10 -96q-35 -200 -177 -315t-356 -115h-338l-69 -326h-150l301 1413h150l-55 -258h337q176 0 271 -79zM999 821q0 201 -254 201h-325l-119 -561h326q153 0 246 71q96 73 120 220q6 38 6 69z" />
    <glyph glyph-name="germandbls" unicode="&#xdf;" horiz-adv-x="1036" 
d="M430 119h55q95 0 144 33q48 32 74 99q27 69 59 210q31 144 31 205q0 73 -39 106t-135 33h-44l27 127h55q115 0 173 61q59 62 59 168q0 68 -48 104q-47 35 -143 35q-124 0 -192 -58q-69 -59 -96 -187l-226 -1055h-139l219 1036q40 192 147 293q104 98 302 98
q152 0 236 -65q85 -66 85 -176q0 -103 -50 -186q-50 -82 -144 -126q52 -26 75 -67t23 -105q0 -81 -35 -241q-40 -180 -86 -280q-45 -97 -127 -143t-227 -46h-60z" />
    <glyph glyph-name="agrave" unicode="&#xe0;" horiz-adv-x="1044" 
d="M161 57q-79 69 -79 217q0 60 16 140l45 213q46 218 166 321t277 103q92 0 154 -40q63 -40 91 -118l31 145h139l-221 -1038h-137l31 139q-112 -151 -309 -151q-125 0 -204 69zM622 199q80 85 109 225l39 182q10 44 10 103q0 103 -49 159q-50 58 -149 58q-231 0 -299 -310
l-43 -196q-13 -55 -13 -115q0 -192 185 -192q129 0 210 86zM440 1427h160l150 -256h-117z" />
    <glyph glyph-name="aacute" unicode="&#xe1;" horiz-adv-x="1044" 
d="M161 57q-79 69 -79 217q0 60 16 140l45 213q46 218 166 321t277 103q92 0 154 -40q63 -40 91 -118l31 145h139l-221 -1038h-137l31 139q-112 -151 -309 -151q-125 0 -204 69zM622 199q80 85 109 225l39 182q10 44 10 103q0 103 -49 159q-50 58 -149 58q-231 0 -299 -310
l-43 -196q-13 -55 -13 -115q0 -192 185 -192q129 0 210 86zM750 1427h172l-299 -256h-129z" />
    <glyph glyph-name="acircumflex" unicode="&#xe2;" horiz-adv-x="1044" 
d="M161 57q-79 69 -79 217q0 60 16 140l45 213q46 218 166 321t277 103q92 0 154 -40q63 -40 91 -118l31 145h139l-221 -1038h-137l31 139q-112 -151 -309 -151q-125 0 -204 69zM622 199q80 85 109 225l39 182q10 44 10 103q0 103 -49 159q-50 58 -149 58q-231 0 -299 -310
l-43 -196q-13 -55 -13 -115q0 -192 185 -192q129 0 210 86zM633 1446h112l156 -295h-127l-104 195l-193 -195h-125z" />
    <glyph glyph-name="atilde" unicode="&#xe3;" horiz-adv-x="1044" 
d="M161 57q-79 69 -79 217q0 60 16 140l45 213q46 218 166 321t277 103q92 0 154 -40q63 -40 91 -118l31 145h139l-221 -1038h-137l31 139q-112 -151 -309 -151q-125 0 -204 69zM622 199q80 85 109 225l39 182q10 44 10 103q0 103 -49 159q-50 58 -149 58q-231 0 -299 -310
l-43 -196q-13 -55 -13 -115q0 -192 185 -192q129 0 210 86zM401 1290q46 41 80 59q37 19 78 19q34 0 57 -10q31 -14 56 -31q28 -21 51 -30t49 -9q38 0 69 18q36 21 83 62l-27 -125q-82 -76 -158 -76q-34 0 -59 11q-32 14 -57 30q-34 22 -53 29q-21 8 -44 8q-38 0 -68 -17
q-33 -19 -83 -63z" />
    <glyph glyph-name="adieresis" unicode="&#xe4;" horiz-adv-x="1044" 
d="M161 57q-79 69 -79 217q0 60 16 140l45 213q46 218 166 321t277 103q92 0 154 -40q63 -40 91 -118l31 145h139l-221 -1038h-137l31 139q-112 -151 -309 -151q-125 0 -204 69zM622 199q80 85 109 225l39 182q10 44 10 103q0 103 -49 159q-50 58 -149 58q-231 0 -299 -310
l-43 -196q-13 -55 -13 -115q0 -192 185 -192q129 0 210 86zM416 1360h155l-36 -176h-156zM766 1360h156l-37 -176h-156z" />
    <glyph glyph-name="aring" unicode="&#xe5;" horiz-adv-x="1044" 
d="M161 57q-79 69 -79 217q0 60 16 140l45 213q46 218 166 321t277 103q92 0 154 -40q63 -40 91 -118l31 145h139l-221 -1038h-137l31 139q-112 -151 -309 -151q-125 0 -204 69zM622 199q80 85 109 225l39 182q10 44 10 103q0 103 -49 159q-50 58 -149 58q-231 0 -299 -310
l-43 -196q-13 -55 -13 -115q0 -192 185 -192q129 0 210 86zM523 1198q-52 52 -52 133q0 83 52 135q54 54 134 54t134 -54q53 -53 53 -135q0 -80 -53 -133t-134 -53t-134 53zM732 1253q30 30 30 78q0 47 -30 79t-75 32t-75 -32q-31 -33 -31 -79q0 -47 31 -78q30 -30 75 -30
t75 30z" />
    <glyph glyph-name="ae" unicode="&#xe6;" horiz-adv-x="1662" 
d="M152 52q-82 64 -82 190q0 102 54 182t151 123q96 43 223 43h270q33 147 33 184q0 162 -199 162q-111 0 -176 -49q-66 -50 -84 -137h-137q28 144 139 223q112 80 281 80q218 0 290 -144q62 74 154 109q93 35 195 35q146 0 231 -73q84 -72 84 -226q0 -70 -16 -140l-27 -122
h-647l-12 -62q-10 -48 -13 -66q-4 -28 -4 -69q0 -95 58 -139q56 -43 153 -43q109 0 179 51q72 52 106 155h137q-50 -165 -164 -248q-113 -83 -264 -83q-245 0 -317 164q-66 -80 -155 -122t-210 -42q-149 0 -231 64zM1417 596q23 101 23 147q0 183 -205 183q-258 0 -315 -281
l-11 -49h508zM620 174q74 72 107 229l18 84h-247q-136 0 -213 -63q-76 -63 -76 -166q0 -78 48 -118q47 -40 151 -40q136 0 212 74z" />
    <glyph glyph-name="ccedilla" unicode="&#xe7;" horiz-adv-x="1032" 
d="M813 696l2 35q0 99 -50 147q-49 48 -153 48q-127 0 -211 -69q-82 -67 -120 -239l-39 -184q-15 -63 -15 -119q0 -112 60 -157t164 -45q123 0 194 59q72 60 90 170h133q-17 -153 -115 -245t-259 -107l-158 -297h-148l181 299q-131 15 -207 88t-76 215q0 67 14 131l43 201
q91 426 478 426q161 0 245 -78t84 -227q0 -30 -2 -52h-135z" />
    <glyph glyph-name="egrave" unicode="&#xe8;" horiz-adv-x="1032" 
d="M856 978q90 -75 90 -228q0 -60 -16 -140l-25 -118h-649l-12 -64q-15 -63 -15 -119q0 -108 59 -152t161 -44q105 0 178 53q71 52 98 153h135q-33 -160 -144 -245q-112 -86 -286 -86q-158 0 -249 75q-93 77 -93 236q0 57 16 137l37 178q47 225 173 332q127 107 302 107
q150 0 240 -75zM807 739q0 100 -53 144q-52 43 -150 43q-119 0 -203 -69q-83 -68 -118 -239l-4 -22h507l9 37q12 61 12 106zM453 1427h159l150 -256h-117z" />
    <glyph glyph-name="eacute" unicode="&#xe9;" horiz-adv-x="1032" 
d="M856 978q90 -75 90 -228q0 -60 -16 -140l-25 -118h-649l-12 -64q-15 -63 -15 -119q0 -108 59 -152t161 -44q105 0 178 53q71 52 98 153h135q-33 -160 -144 -245q-112 -86 -286 -86q-158 0 -249 75q-93 77 -93 236q0 57 16 137l37 178q47 225 173 332q127 107 302 107
q150 0 240 -75zM807 739q0 100 -53 144q-52 43 -150 43q-119 0 -203 -69q-83 -68 -118 -239l-4 -22h507l9 37q12 61 12 106zM762 1427h172l-299 -256h-129z" />
    <glyph glyph-name="ecircumflex" unicode="&#xea;" horiz-adv-x="1032" 
d="M856 978q90 -75 90 -228q0 -60 -16 -140l-25 -118h-649l-12 -64q-15 -63 -15 -119q0 -108 59 -152t161 -44q105 0 178 53q71 52 98 153h135q-33 -160 -144 -245q-112 -86 -286 -86q-158 0 -249 75q-93 77 -93 236q0 57 16 137l37 178q47 225 173 332q127 107 302 107
q150 0 240 -75zM807 739q0 100 -53 144q-52 43 -150 43q-119 0 -203 -69q-83 -68 -118 -239l-4 -22h507l9 37q12 61 12 106zM645 1446h113l155 -295h-127l-104 195l-193 -195h-124z" />
    <glyph glyph-name="edieresis" unicode="&#xeb;" horiz-adv-x="1032" 
d="M856 978q90 -75 90 -228q0 -60 -16 -140l-25 -118h-649l-12 -64q-15 -63 -15 -119q0 -108 59 -152t161 -44q105 0 178 53q71 52 98 153h135q-33 -160 -144 -245q-112 -86 -286 -86q-158 0 -249 75q-93 77 -93 236q0 57 16 137l37 178q47 225 173 332q127 107 302 107
q150 0 240 -75zM807 739q0 100 -53 144q-52 43 -150 43q-119 0 -203 -69q-83 -68 -118 -239l-4 -22h507l9 37q12 61 12 106zM428 1360h156l-37 -176h-156zM778 1360h156l-37 -176h-156z" />
    <glyph glyph-name="igrave" unicode="&#xec;" horiz-adv-x="446" 
d="M264 1038h139l-221 -1038h-137zM172 1427h160l149 -256h-116z" />
    <glyph glyph-name="iacute" unicode="&#xed;" horiz-adv-x="446" 
d="M264 1038h139l-221 -1038h-137zM481 1427h172l-299 -256h-129z" />
    <glyph glyph-name="icircumflex" unicode="&#xee;" horiz-adv-x="446" 
d="M264 1038h139l-221 -1038h-137zM365 1446h112l156 -295h-127l-105 195l-192 -195h-125z" />
    <glyph glyph-name="idieresis" unicode="&#xef;" horiz-adv-x="446" 
d="M264 1038h139l-221 -1038h-137zM147 1360h156l-37 -176h-155zM498 1360h155l-37 -176h-155z" />
    <glyph glyph-name="eth" unicode="&#xf0;" horiz-adv-x="1017" 
d="M838 1016q80 -160 80 -316q0 -65 -17 -153l-22 -113q-45 -226 -172 -339q-126 -113 -314 -113q-152 0 -230 75q-79 76 -79 224q0 73 16 143l25 113q45 209 163 321q119 113 281 113q85 0 138 -29l-99 191l-223 -64l-6 111l180 51l-94 182h170l72 -139l217 61l6 -110
l-174 -49zM772 653q0 189 -192 189q-251 0 -314 -301l-24 -117q-15 -77 -15 -115q0 -194 197 -194q122 0 201 76q80 77 110 231l23 115q14 71 14 116z" />
    <glyph glyph-name="ntilde" unicode="&#xf1;" horiz-adv-x="1071" 
d="M264 1038h139l-28 -127q59 72 136 105q81 35 169 35q138 0 211 -69q74 -69 74 -194q0 -46 -13 -106l-145 -682h-139l139 659q10 53 10 89q0 88 -49 133q-50 45 -139 45q-113 0 -195 -69q-81 -68 -108 -195l-142 -662h-139zM436 1290q46 41 80 59q37 19 78 19q34 0 57 -10
q31 -14 56 -31q29 -21 51 -30q23 -9 49 -9q37 0 69 18q33 19 82 62l-26 -125q-82 -76 -158 -76q-34 0 -59 11q-35 15 -58 30q-36 23 -52 29q-21 8 -44 8q-38 0 -68 -17q-33 -19 -83 -63z" />
    <glyph glyph-name="ograve" unicode="&#xf2;" horiz-adv-x="1034" 
d="M174 58q-90 70 -90 225q0 67 14 131l45 213q47 221 173 323q127 103 307 103q149 0 239 -72t90 -221q0 -57 -16 -133l-45 -213q-46 -222 -172 -325q-123 -101 -301 -101q-155 0 -244 70zM636 181q82 70 116 241l41 196q14 59 14 115q0 193 -205 193q-120 0 -203 -69
q-80 -67 -118 -239l-41 -198q-13 -68 -13 -111q0 -109 57 -152q58 -44 154 -44q118 0 198 68zM457 1427h159l150 -256h-117z" />
    <glyph glyph-name="oacute" unicode="&#xf3;" horiz-adv-x="1034" 
d="M174 58q-90 70 -90 225q0 67 14 131l45 213q47 221 173 323q127 103 307 103q149 0 239 -72t90 -221q0 -57 -16 -133l-45 -213q-46 -222 -172 -325q-123 -101 -301 -101q-155 0 -244 70zM636 181q82 70 116 241l41 196q14 59 14 115q0 193 -205 193q-120 0 -203 -69
q-80 -67 -118 -239l-41 -198q-13 -68 -13 -111q0 -109 57 -152q58 -44 154 -44q118 0 198 68zM766 1427h172l-299 -256h-129z" />
    <glyph glyph-name="ocircumflex" unicode="&#xf4;" horiz-adv-x="1034" 
d="M174 58q-90 70 -90 225q0 67 14 131l45 213q47 221 173 323q127 103 307 103q149 0 239 -72t90 -221q0 -57 -16 -133l-45 -213q-46 -222 -172 -325q-123 -101 -301 -101q-155 0 -244 70zM636 181q82 70 116 241l41 196q14 59 14 115q0 193 -205 193q-120 0 -203 -69
q-80 -67 -118 -239l-41 -198q-13 -68 -13 -111q0 -109 57 -152q58 -44 154 -44q118 0 198 68zM649 1446h113l156 -295h-127l-105 195l-192 -195h-125z" />
    <glyph glyph-name="otilde" unicode="&#xf5;" horiz-adv-x="1034" 
d="M174 58q-90 70 -90 225q0 67 14 131l45 213q47 221 173 323q127 103 307 103q149 0 239 -72t90 -221q0 -57 -16 -133l-45 -213q-46 -222 -172 -325q-123 -101 -301 -101q-155 0 -244 70zM636 181q82 70 116 241l41 196q14 59 14 115q0 193 -205 193q-120 0 -203 -69
q-80 -67 -118 -239l-41 -198q-13 -68 -13 -111q0 -109 57 -152q58 -44 154 -44q118 0 198 68zM418 1290q46 41 80 59q37 19 77 19q35 0 58 -10q29 -12 55 -31q28 -21 51 -30q22 -9 49 -9q38 0 69 18q36 21 83 62l-27 -125q-82 -76 -157 -76q-35 0 -60 11q-32 14 -57 30
q-36 23 -52 29q-21 8 -44 8q-39 0 -69 -17q-33 -19 -83 -63z" />
    <glyph glyph-name="odieresis" unicode="&#xf6;" horiz-adv-x="1034" 
d="M174 58q-90 70 -90 225q0 67 14 131l45 213q47 221 173 323q127 103 307 103q149 0 239 -72t90 -221q0 -57 -16 -133l-45 -213q-46 -222 -172 -325q-123 -101 -301 -101q-155 0 -244 70zM636 181q82 70 116 241l41 196q14 59 14 115q0 193 -205 193q-120 0 -203 -69
q-80 -67 -118 -239l-41 -198q-13 -68 -13 -111q0 -109 57 -152q58 -44 154 -44q118 0 198 68zM432 1360h156l-37 -176h-156zM782 1360h156l-37 -176h-156z" />
    <glyph glyph-name="divide" unicode="&#xf7;" 
d="M465 786q-29 29 -29 70t29 70q28 28 70 28q41 0 69 -28q29 -29 29 -70t-29 -70q-28 -28 -69 -28q-42 0 -70 28zM127 633h815v-135h-815v135zM465 209q-29 29 -29 70q0 40 29 69t70 29q40 0 69 -29t29 -69q0 -41 -29 -70t-69 -29q-41 0 -70 29z" />
    <glyph glyph-name="oslash" unicode="&#xf8;" horiz-adv-x="1034" 
d="M905 934q49 -68 49 -170q0 -57 -16 -137l-45 -213q-90 -426 -465 -426q-157 0 -246 67l-94 -116h-88l135 163q-53 67 -53 177q0 70 16 135l47 213q96 426 469 426q153 0 244 -70l88 109h88zM238 227l528 645q-52 54 -158 54q-121 0 -206 -69q-84 -68 -119 -239l-41 -196
q-15 -63 -15 -117q0 -39 11 -78zM801 807l-527 -643q51 -51 160 -51q118 0 201 68q85 70 119 241l41 196q14 59 14 119q0 41 -8 70z" />
    <glyph glyph-name="ugrave" unicode="&#xf9;" horiz-adv-x="1071" 
d="M196 59q-83 72 -83 207q0 50 14 121l137 651h142l-138 -641q-14 -67 -14 -112q0 -85 47 -129q46 -43 150 -43q132 0 200 68q72 72 101 218l137 639h139l-139 -657q-84 -393 -451 -393q-161 0 -242 71zM483 1427h160l150 -256h-117z" />
    <glyph glyph-name="uacute" unicode="&#xfa;" horiz-adv-x="1071" 
d="M196 59q-83 72 -83 207q0 50 14 121l137 651h142l-138 -641q-14 -67 -14 -112q0 -85 47 -129q46 -43 150 -43q132 0 200 68q72 72 101 218l137 639h139l-139 -657q-84 -393 -451 -393q-161 0 -242 71zM793 1427h172l-299 -256h-129z" />
    <glyph glyph-name="ucircumflex" unicode="&#xfb;" horiz-adv-x="1071" 
d="M196 59q-83 72 -83 207q0 50 14 121l137 651h142l-138 -641q-14 -67 -14 -112q0 -85 47 -129q46 -43 150 -43q132 0 200 68q72 72 101 218l137 639h139l-139 -657q-84 -393 -451 -393q-161 0 -242 71zM676 1446h112l156 -295h-127l-104 195l-193 -195h-125z" />
    <glyph glyph-name="udieresis" unicode="&#xfc;" horiz-adv-x="1071" 
d="M196 59q-83 72 -83 207q0 50 14 121l137 651h142l-138 -641q-14 -67 -14 -112q0 -85 47 -129q46 -43 150 -43q132 0 200 68q72 72 101 218l137 639h139l-139 -657q-84 -393 -451 -393q-161 0 -242 71zM459 1360h155l-36 -176h-156zM809 1360h156l-37 -176h-156z" />
    <glyph glyph-name="yacute" unicode="&#xfd;" horiz-adv-x="901" 
d="M983 1038l-645 -1151q-60 -105 -134 -151q-76 -47 -181 -47h-62l27 127h49q78 0 120 29q44 31 83 102l36 67l-137 1024h150l96 -823l449 823h149zM690 1427h172l-299 -256h-129z" />
    <glyph glyph-name="thorn" unicode="&#xfe;" 
d="M344 1413h139l-110 -520q61 79 136 119q77 41 167 41q129 0 210 -70q79 -69 79 -217q0 -64 -21 -158l-43 -194q-50 -223 -169 -324q-120 -102 -271 -102q-198 0 -250 149l-94 -448h-140zM649 185q77 71 115 241l41 192q14 59 14 117q0 191 -186 191q-126 0 -208 -88
q-85 -91 -114 -232l-30 -141q-19 -90 -19 -139q0 -99 51 -156t154 -57q104 0 182 72z" />
    <glyph glyph-name="ydieresis" unicode="&#xff;" horiz-adv-x="901" 
d="M983 1038l-645 -1151q-60 -105 -134 -151q-76 -47 -181 -47h-62l27 127h49q78 0 120 29q44 31 83 102l36 67l-137 1024h150l96 -823l449 823h149zM356 1360h156l-37 -176h-156zM707 1360h155l-37 -176h-155z" />
    <glyph glyph-name="dotlessi" unicode="&#x131;" horiz-adv-x="446" 
d="M264 1038h139l-221 -1038h-137z" />
    <glyph glyph-name="OE" unicode="&#x152;" horiz-adv-x="1941" 
d="M1278 1278l-104 -492h606l-29 -135h-606l-111 -516h711l-31 -135h-858l18 88q-132 -104 -337 -104q-194 0 -306 91t-112 283q0 74 18 166l78 367q114 541 582 541q230 0 338 -129l22 110h858l-28 -135h-709zM817 215q101 95 146 301l79 369q17 76 17 145q0 266 -281 266
q-165 0 -266 -96q-100 -96 -147 -315l-80 -369q-17 -80 -17 -135q0 -260 289 -260q160 0 260 94z" />
    <glyph glyph-name="oe" unicode="&#x153;" horiz-adv-x="1685" 
d="M1509 978q90 -75 90 -228q0 -60 -16 -140l-24 -118h-650l-12 -64q-14 -59 -14 -119q0 -109 58 -152q59 -44 161 -44q105 0 178 53q71 52 98 153h135q-33 -160 -144 -245q-112 -86 -286 -86q-108 0 -189 39q-82 39 -122 118q-127 -157 -354 -157q-155 0 -244 70
q-90 70 -90 225q0 67 14 131l45 213q47 221 173 323q127 103 307 103q107 0 185 -37q79 -37 116 -115q129 152 346 152q149 0 239 -75zM636 181q82 70 116 241l41 196q14 59 14 115q0 193 -205 193q-120 0 -203 -69q-80 -67 -118 -239l-41 -198q-13 -68 -13 -111
q0 -109 57 -152q58 -44 154 -44q118 0 198 68zM1460 739q0 100 -53 144q-53 43 -150 43q-118 0 -202 -69t-119 -239l-4 -22h508l8 37q12 61 12 106z" />
    <glyph glyph-name="Scaron" unicode="&#x160;" horiz-adv-x="1126" 
d="M147 76q-108 88 -108 254q0 48 4 69h145q-2 -22 -2 -47q0 -233 281 -233q188 0 289 86q100 85 100 235q0 86 -52 134t-161 69l-160 31q-288 55 -288 293q0 142 66 247q65 103 188 161q122 57 276 57q177 0 283 -85t106 -255q0 -30 -2 -54h-147q4 33 4 52q0 213 -254 213
q-172 0 -272 -86q-99 -85 -99 -222q0 -80 50 -127t153 -65l164 -31q144 -27 221 -99q76 -72 76 -202q0 -228 -148 -356q-146 -127 -405 -127q-201 0 -308 88zM532 1823h121l107 -199l190 199h131l-280 -295h-115z" />
    <glyph glyph-name="scaron" unicode="&#x161;" horiz-adv-x="954" 
d="M137 69q-88 81 -88 230h131q0 -96 57 -144q58 -49 179 -49q112 0 190 58q76 57 76 155q0 65 -39 95t-121 45l-121 22q-126 23 -188 76q-59 50 -59 150q0 99 50 179t141 123q93 44 214 44q177 0 259 -78q83 -78 83 -219h-135q0 94 -53 138t-170 44q-114 0 -182 -58
t-68 -147q0 -57 37 -87q36 -29 114 -44l129 -24q131 -24 191 -81q59 -56 59 -157q0 -161 -116 -256q-117 -96 -308 -96q-173 0 -262 81zM358 1448h121l107 -199l190 199h131l-280 -295h-115z" />
    <glyph glyph-name="Ydieresis" unicode="&#x178;" horiz-adv-x="1007" 
d="M594 590l-127 -590h-148l125 594l-245 819h159l191 -682l479 682h162zM494 1735h155l-37 -176h-155zM844 1735h155l-36 -176h-156z" />
    <glyph glyph-name="Zcaron" unicode="&#x17d;" horiz-adv-x="1067" 
d="M1139 1278l-967 -1143h731l-29 -135h-903l29 135l965 1143h-693l27 135h868zM532 1823h121l107 -199l190 199h131l-280 -295h-115z" />
    <glyph glyph-name="zcaron" unicode="&#x17e;" horiz-adv-x="935" 
d="M897 909l-696 -780h530l-26 -129h-695l29 129l694 780h-528l26 129h693zM369 1448h120l107 -199l190 199h132l-281 -295h-115z" />
    <glyph glyph-name="florin" unicode="&#x192;" horiz-adv-x="833" 
d="M-119 -176h58q82 0 126 35q42 34 80 133l261 719h-175l27 129h195l98 270q60 162 146 232q88 71 235 71h65l-28 -135h-70q-78 0 -124 -37t-79 -129l-100 -272h215l-27 -129h-235l-260 -715q-62 -170 -147 -239q-84 -68 -232 -68h-60z" />
    <glyph glyph-name="circumflex" unicode="&#x2c6;" horiz-adv-x="997" 
d="M651 1446h113l156 -295h-127l-105 195l-192 -195h-125z" />
    <glyph glyph-name="caron" unicode="&#x2c7;" horiz-adv-x="1024" 
d="M434 1448h121l107 -199l190 199h131l-281 -295h-114z" />
    <glyph glyph-name="dotaccent" unicode="&#x2d9;" horiz-adv-x="1024" 
d="M590 1393h147l-39 -185h-147z" />
    <glyph glyph-name="ring" unicode="&#x2da;" horiz-adv-x="1024" 
d="M550 1198q-52 52 -52 133q0 83 52 135q54 54 134 54q79 0 133 -54q53 -53 53 -135q0 -80 -53 -133t-133 -53q-81 0 -134 53zM759 1253q29 29 29 78t-29 79q-30 32 -75 32q-46 0 -76 -32t-30 -79q0 -48 30 -78t76 -30q45 0 75 30z" />
    <glyph glyph-name="tilde" unicode="&#x2dc;" horiz-adv-x="997" 
d="M422 1290q46 41 80 59q37 19 78 19q34 0 57 -10q29 -12 55 -31q28 -21 51 -30t50 -9q37 0 68 18q36 21 83 62l-26 -125q-82 -76 -158 -76q-35 0 -60 11q-32 14 -57 30q-36 23 -52 29q-21 8 -44 8q-39 0 -69 -17q-33 -19 -83 -63z" />
    <glyph glyph-name="gravecomb" unicode="&#x300;" horiz-adv-x="0" 
d="M-51 1427h160l149 -256h-117z" />
    <glyph glyph-name="acutecomb" unicode="&#x301;" horiz-adv-x="0" 
d="M258 1427h172l-299 -256h-129z" />
    <glyph glyph-name="uni0302" unicode="&#x302;" horiz-adv-x="0" 
d="M141 1446h113l156 -295h-127l-105 195l-192 -195h-125z" />
    <glyph glyph-name="tildecomb" unicode="&#x303;" horiz-adv-x="0" 
d="M-90 1290q46 41 80 59q37 19 78 19q34 0 57 -10q29 -12 55 -31q28 -21 51 -30t50 -9q37 0 68 18q36 21 83 62l-26 -125q-82 -76 -158 -76q-35 0 -60 11q-32 14 -57 30q-36 23 -52 29q-21 8 -44 8q-39 0 -69 -17q-33 -19 -83 -63z" />
    <glyph glyph-name="uni0308" unicode="&#x308;" horiz-adv-x="0" 
d="M-76 1360h156l-37 -176h-156zM274 1360h156l-37 -176h-155z" />
    <glyph glyph-name="uni030A" unicode="&#x30a;" horiz-adv-x="0" 
d="M38 1198q-52 52 -52 133q0 83 52 135q54 54 134 54q79 0 133 -54q53 -53 53 -135q0 -80 -53 -133t-133 -53q-81 0 -134 53zM248 1253q31 31 31 78q0 46 -31 79q-30 32 -76 32t-76 -32t-30 -79q0 -48 30 -78t76 -30t76 30z" />
    <glyph glyph-name="endash" unicode="&#x2013;" horiz-adv-x="854" 
d="M55 778h854l-28 -135h-854z" />
    <glyph glyph-name="emdash" unicode="&#x2014;" horiz-adv-x="1705" 
d="M55 778h1706l-28 -135h-1706z" />
    <glyph glyph-name="quoteleft" unicode="&#x2018;" horiz-adv-x="356" 
d="M340 973h-135l71 344l168 127zM334 1413z" />
    <glyph glyph-name="quoteright" unicode="&#x2019;" horiz-adv-x="356" 
d="M301 1413h135l-71 -344l-168 -127z" />
    <glyph glyph-name="quotesinglbase" unicode="&#x201a;" horiz-adv-x="356" 
d="M41 190h135l-72 -344l-167 -127z" />
    <glyph glyph-name="quotedblleft" unicode="&#x201c;" horiz-adv-x="641" 
d="M342 973h-135l72 344l167 127zM625 973h-136l72 344l168 127zM352 1413z" />
    <glyph glyph-name="quotedblright" unicode="&#x201d;" horiz-adv-x="641" 
d="M303 1415h135l-71 -344l-168 -127zM586 1415h135l-72 -344l-168 -127z" />
    <glyph glyph-name="quotedblbase" unicode="&#x201e;" horiz-adv-x="636" 
d="M322 190h135l-72 -344l-168 -127zM43 190h135l-72 -344l-167 -127z" />
    <glyph glyph-name="dagger" unicode="&#x2020;" horiz-adv-x="1079" 
d="M981 780h-309l-232 -1091h-151l233 1091h-313l29 133h313l106 500h148l-107 -500h312z" />
    <glyph glyph-name="daggerdbl" unicode="&#x2021;" horiz-adv-x="1079" 
d="M674 786l-99 -464h310l-29 -136h-309l-107 -497h-149l106 497h-313l29 136h313l98 464h-313l29 136h313l104 491h150l-105 -491h310l-29 -136h-309z" />
    <glyph glyph-name="bullet" unicode="&#x2022;" horiz-adv-x="978" 
d="M334 452q-72 71 -72 179q0 109 72 179q73 71 180 71q108 0 179 -71t71 -179t-71 -179t-179 -71q-107 0 -180 71z" />
    <glyph glyph-name="ellipsis" unicode="&#x2026;" horiz-adv-x="1452" 
d="M84 188h182l-41 -188h-180zM1047 188h182l-41 -188h-180zM565 188h183l-41 -188h-181z" />
    <glyph glyph-name="perthousand" unicode="&#x2030;" horiz-adv-x="2551" 
d="M170 733q0 61 14 117l62 285q30 145 105 219q74 73 198 73q205 0 205 -182q0 -43 -13 -110l-59 -285q-30 -150 -104 -227q-73 -76 -203 -76q-205 0 -205 186zM1421 1413h127l-1065 -1413h-129zM492 709q30 44 51 147l55 266q14 67 14 101q0 43 -20 63q-21 21 -66 21
q-62 0 -92 -42t-51 -143l-57 -266q-15 -72 -15 -104q0 -45 21 -66q20 -20 65 -20q65 0 95 43zM1145 174q0 61 14 117l62 284q30 147 105 220q74 73 198 73q205 0 205 -182q0 -44 -13 -111l-59 -284q-30 -150 -105 -228q-72 -75 -202 -75q-205 0 -205 186zM1874 174
q0 61 14 117l62 284q30 147 105 220q74 73 198 73q205 0 205 -182q0 -44 -13 -111l-59 -284q-30 -150 -105 -228q-72 -75 -202 -75q-205 0 -205 186zM1466 150q32 46 52 147l55 266q14 67 14 101q0 43 -20 63q-21 21 -66 21q-62 0 -92 -42t-51 -143l-58 -266
q-14 -67 -14 -104q0 -45 21 -66t65 -21q64 0 94 44zM2195 150q32 46 52 147l55 266q14 67 14 101q0 43 -20 63q-21 21 -66 21q-62 0 -92 -42t-51 -143l-57 -266q-15 -72 -15 -104q0 -45 21 -66q20 -20 65 -20q64 0 94 43z" />
    <glyph glyph-name="guilsinglleft" unicode="&#x2039;" horiz-adv-x="604" 
d="M55 541l486 405l-35 -170l-283 -235l183 -236l-37 -170z" />
    <glyph glyph-name="guilsinglright" unicode="&#x203a;" horiz-adv-x="606" 
d="M111 305l280 236l-182 235l37 170l313 -405l-485 -406z" />
    <glyph glyph-name="Euro" unicode="&#x20ac;" horiz-adv-x="1134" 
d="M282 61q-92 83 -92 220q0 61 17 141l20 100h-123l25 117h123l31 147h-123l24 115h123l23 107q40 189 159 308q118 118 304 118q160 0 242 -82q83 -83 83 -244h-135q0 190 -203 190q-135 0 -203 -75q-70 -77 -98 -213l-22 -109h424l-47 -115h-402l-31 -147h373l-45 -117
h-352l-23 -104q-12 -56 -12 -107q0 -91 51 -143q51 -53 156 -53q103 0 166 48q64 49 98 142h141q-46 -154 -153 -240q-106 -85 -262 -85q-167 0 -257 81z" />
    <glyph glyph-name="trademark" unicode="&#x2122;" horiz-adv-x="1849" 
d="M508 1305h-236v108h590v-108h-233v-699h-121v699zM1004 1413h110l240 -541h6l233 541h111v-807h-115v535h-4l-186 -416h-88l-189 416h-4v-535h-114v807z" />
    <glyph glyph-name="NULL" horiz-adv-x="1228" 
 />
    <glyph glyph-name="t_t" horiz-adv-x="1304" 
d="M911 264q-6 -27 -6 -47q0 -94 111 -94h82l-27 -123h-104q-100 0 -152 49q-53 50 -53 135q0 37 8 74l143 670h-446l-141 -664q-7 -31 -7 -47q0 -94 111 -94h82l-27 -123h-104q-100 0 -152 49q-53 50 -53 135q0 37 8 74l144 670h-162l22 110h162l51 238l154 65l-66 -303
h447l51 238l154 65l-66 -303h236l-23 -110h-235z" />
    <glyph glyph-name="zero.dnom" horiz-adv-x="729" 
d="M51 174q0 57 15 117l61 284q30 147 105 220q74 73 198 73q205 0 205 -182q0 -50 -12 -111l-60 -284q-30 -151 -104 -228q-72 -75 -203 -75q-205 0 -205 186zM373 150q30 44 51 147l55 266q15 72 15 101q0 42 -21 63t-65 21q-63 0 -93 -42t-51 -143l-57 -266
q-14 -67 -14 -104q0 -46 20 -66q21 -21 66 -21q64 0 94 44z" />
    <glyph glyph-name="one.dnom" horiz-adv-x="514" 
d="M301 705l-174 -113l31 151l174 111h143l-182 -854h-141z" />
    <glyph glyph-name="two.dnom" horiz-adv-x="788" 
d="M70 106l364 386q88 94 88 182q0 38 -21 59t-63 21q-48 0 -84 -31q-35 -30 -47 -92l-4 -23h-133l6 31q22 104 102 167q78 62 191 62q92 0 146 -45q55 -46 55 -121q0 -81 -36 -147q-35 -65 -102 -133l-282 -301h299l-25 -121h-479z" />
    <glyph glyph-name="three.dnom" horiz-adv-x="735" 
d="M100 30q-55 42 -55 115q0 31 14 84h123q-6 -33 -6 -47q0 -36 25 -59t67 -23q72 0 113 60q41 61 41 133q0 43 -26 67q-27 25 -74 25h-43l24 115h43q69 0 106 52t37 120q0 39 -21 60q-22 22 -62 22q-50 0 -85 -29t-45 -78l-4 -20h-125l5 22q18 99 91 160q71 59 183 59
q91 0 147 -47t56 -131q0 -75 -42 -144q-41 -68 -118 -95q45 -16 68 -55q22 -37 22 -89q0 -88 -40 -159q-41 -74 -110 -116q-71 -44 -157 -44q-96 0 -152 42z" />
    <glyph glyph-name="four.dnom" horiz-adv-x="706" 
d="M547 154h-80l-33 -154h-141l33 154h-320l25 120l362 580h139l-362 -580h182l43 201h140l-43 -201h81z" />
    <glyph glyph-name="zero.numr" horiz-adv-x="729" 
d="M170 733q0 61 14 117l62 285q30 145 105 219q74 73 198 73q205 0 205 -182q0 -43 -13 -110l-59 -285q-30 -150 -104 -227q-73 -76 -203 -76q-205 0 -205 186zM492 709q30 44 51 147l55 266q14 67 14 101q0 43 -20 63q-21 21 -66 21q-62 0 -92 -42t-51 -143l-57 -266
q-15 -72 -15 -104q0 -45 21 -66q20 -20 65 -20q65 0 95 43z" />
    <glyph glyph-name="one.numr" horiz-adv-x="514" 
d="M420 1264l-174 -113l30 152l175 110h143l-182 -854h-142z" />
    <glyph glyph-name="two.numr" horiz-adv-x="788" 
d="M188 666l365 385q88 94 88 182q0 38 -21 59t-63 21q-48 0 -84 -31q-35 -30 -47 -92l-4 -23h-133l6 31q22 105 101 167q78 62 192 62q92 0 146 -45t54 -120q0 -84 -35 -148q-35 -65 -102 -133l-282 -301h299l-25 -121h-479z" />
    <glyph glyph-name="three.numr" horiz-adv-x="735" 
d="M219 589q-55 42 -55 116q0 30 14 83h123q-6 -33 -6 -47q0 -37 24 -59q25 -23 68 -23q72 0 113 60q41 61 41 133q0 44 -26 68q-25 24 -75 24h-43l25 115h43q68 0 105 52q38 53 38 120q0 39 -21 60q-22 22 -63 22q-50 0 -85 -29q-33 -27 -44 -78l-4 -20h-125l4 22
q18 99 91 160q71 59 184 59q91 0 147 -47t56 -131q0 -75 -42 -144q-41 -68 -118 -95q44 -16 67 -55q23 -38 23 -89q0 -87 -40 -158q-42 -74 -111 -117q-71 -44 -156 -44q-97 0 -152 42z" />
    <glyph glyph-name="four.numr" horiz-adv-x="706" 
d="M666 713h-80l-33 -154h-141l32 154h-319l25 121l362 579h139l-362 -579h182l43 200h139l-43 -200h82z" />
    <glyph glyph-name="zero.sups" horiz-adv-x="729" 
d="M240 1055q0 60 14 116l61 285q30 144 106 219q76 74 197 74q205 0 205 -182q0 -49 -12 -111l-59 -285q-29 -148 -105 -227q-73 -76 -203 -76q-204 0 -204 187zM561 1030q30 44 51 148l56 266q14 67 14 100q0 44 -20 64t-66 20q-62 0 -92 -42t-51 -142l-58 -266
q-14 -67 -14 -105q0 -45 20 -65q21 -21 66 -21q64 0 94 43z" />
    <glyph glyph-name="one.sups" horiz-adv-x="514" 
d="M487 1585l-174 -112l31 151l174 111h144l-183 -854h-141z" />
    <glyph glyph-name="two.sups" horiz-adv-x="788" 
d="M258 987l365 385q88 94 88 182q0 38 -22 60q-20 20 -62 20q-49 0 -84 -30t-47 -93l-4 -22h-134l7 31q22 105 101 167q78 62 191 62q93 0 147 -45t54 -121q0 -81 -36 -147q-37 -67 -101 -133l-283 -302h299l-24 -120h-480z" />
    <glyph glyph-name="three.sups" horiz-adv-x="735" 
d="M291 910q-55 42 -55 116q0 31 14 84h123q-6 -33 -6 -47q0 -37 24 -59q25 -23 68 -23q72 0 112 59q41 61 41 134q0 43 -25 67q-27 25 -75 25h-43l25 114h43q67 0 105 53t38 119q0 39 -22 61q-21 21 -62 21q-51 0 -85 -28q-33 -27 -44 -78l-4 -21h-125l4 23q18 99 91 160
q71 59 183 59q92 0 148 -47q55 -46 55 -131q0 -76 -42 -145q-41 -68 -118 -95q46 -17 68 -54q23 -38 23 -89q0 -88 -40 -159q-42 -74 -111 -117q-71 -44 -157 -44q-95 0 -151 42z" />
    <glyph glyph-name="four.sups" horiz-adv-x="706" 
d="M733 1034h-80l-32 -153h-142l33 153h-319l24 121l363 580h139l-363 -580h183l43 201h139l-43 -201h82z" />
    <glyph glyph-name="glyph249" horiz-adv-x="364" 
d="M700 1413h127l-1065 -1413h-129z" />
    </font>
</defs>
</svg>
