<svg aria-hidden="true" style="position: absolute; width: 0; height: 0; overflow: hidden;" version="1.1" xmlns="http://www.w3.org/2000/svg" xmlns:xlink="http://www.w3.org/1999/xlink">
<defs>
<symbol id="icon-spacex" viewBox="0 0 48 32">
<path d="M4.347 16.664h-3.212v-0.797h4.142c-0.109-0.338-0.459-0.652-1.075-0.652h-3.007c-0.688 0-1.087 0.254-1.087 0.809v0.592c0 0.483 0.411 0.761 1.014 0.761h3.248v0.845h-4.371c0.109 0.459 0.459 0.7 1.087 0.7h3.273c0.688 0 1.026-0.266 1.026-0.833v-0.592c0-0.519-0.398-0.797-1.038-0.833zM10.904 15.227h-3.961v3.707h1.123v-1.425h2.922c0.809 0 1.256-0.278 1.256-0.93v-0.411c-0.012-0.604-0.519-0.942-1.34-0.942zM11.266 16.411c0 0.266-0.048 0.411-0.483 0.411h-2.717l0.012-0.966h2.657c0.483 0 0.543 0.145 0.543 0.398v0.157zM15.976 17.485h-2.391l-0.592 0.628h3.454l0.592 0.821h1.328l-2.862-3.864-0.676 0.833zM20.516 15.867h4.202c-0.109-0.435-0.531-0.652-1.135-0.652h-3.14c-0.543 0-1.063 0.217-1.063 0.809v2.077c0 0.592 0.519 0.809 1.063 0.809h3.176c0.725 0 0.978-0.205 1.099-0.7h-4.202zM29.645 17.099v-0.628h-3.393v2.463h5.011v-0.7h-3.876v-1.135zM26.373 15.227h5.060v0.652h-5.060zM34.548 15.227h-1.763l2.077 1.522c0.302-0.205 0.652-0.423 0.966-0.604zM37.108 17.123c-0.302 0.205-0.604 0.435-0.894 0.652l1.57 1.147h1.775z"></path>
<path d="M48 13.066c-9.66 0.555-14.129 4.685-15.131 5.663l-0.205 0.193h1.787c4.83-4.842 11.774-5.7 13.549-5.857z"></path>
</symbol>
<symbol id="icon-home" viewBox="0 0 32 32">
<path d="M32 18.451l-16-12.42-16 12.42v-5.064l16-12.42 16 12.42zM28 18v12h-8v-8h-8v8h-8v-12l12-9z"></path>
</symbol>
</defs>
</svg>
