<!-- Generated by IcoMoon.io -->
<svg version="1.1" xmlns="http://www.w3.org/2000/svg" width="1536" height="1024" viewBox="0 0 1536 1024">
<title></title>
<g id="icomoon-ignore">
</g>
<path d="M139.101 533.253h-102.787v-25.504h132.542c-3.477-10.82-14.684-20.867-34.392-20.867h-96.217c-22.027 0-34.778 8.114-34.778 25.89v18.934c0 15.457 13.137 24.344 32.458 24.344h103.947v27.050h-139.885c3.477 14.684 14.684 22.411 34.778 22.411h104.721c22.027 0 32.845-8.5 32.845-26.664v-18.934c0-16.616-12.751-25.504-33.232-26.664zM348.927 487.269h-126.746v118.631h35.938v-45.599h93.514c25.89 0 40.188-8.888 40.188-29.755v-13.137c-0.386-19.321-16.616-30.141-42.892-30.141zM360.52 525.137c0 8.5-1.546 13.137-15.457 13.137h-86.944l0.386-30.914h85.013c15.457 0 17.388 4.637 17.388 12.751v5.023zM511.222 559.529h-76.512l-18.934 20.094h110.517l18.934 26.277h42.506l-91.58-123.655-21.641 26.664zM656.518 507.749h134.474c-3.477-13.911-17.004-20.867-36.324-20.867h-100.47c-17.388 0-34.004 6.956-34.004 25.89v66.466c0 18.934 16.616 25.89 34.004 25.89h101.628c23.185 0 31.301-6.57 35.164-22.411h-134.474zM948.652 547.164v-20.094h-108.584v78.829h160.366v-22.411h-124.041v-36.324zM843.931 487.269h161.91v20.867h-161.91zM1105.538 487.269h-56.418l66.466 48.689c9.66-6.57 20.867-13.524 30.914-19.321zM1187.461 547.938c-9.66 6.57-19.321 13.911-28.595 20.867l50.236 36.711h56.805z"></path>
<path d="M1536.010 418.1c-309.135 17.774-452.113 149.932-484.185 181.231l-6.57 6.183h57.189c154.569-154.955 376.76-182.39 433.563-187.414z"></path>
</svg>
